{"asset":{"version":"2.0","generator":"wam scripts/export_items.py (abyss_anemone)"},"scene":0,"scenes":[{"nodes":[0]}],"nodes":[{"name":"abyss_anemone","mesh":0}],"meshes":[{"primitives":[{"attributes":{"POSITION":0,"COLOR_0":1},"indices":2,"material":0}]}],"materials":[{"name":"abyss_anemone","pbrMetallicRoughness":{"baseColorFactor":[1,1,1,1],"metallicFactor":0,"roughnessFactor":0.85}}],"buffers":[{"byteLength":26544,"uri":"data:application/octet-stream;base64,"}],"bufferViews":[{"buffer":0,"byteOffset":0,"byteLength":17460,"target":34962},{"buffer":0,"byteOffset":17460,"byteLength":5820,"target":34962},{"buffer":0,"byteOffset":23280,"byteLength":3264,"target":34963}],"accessors":[{"bufferView":0,"componentType":5126,"count":1455,"type":"VEC3","min":[-0.3482394516468048,-0.003288778942078352,-0.345684677362442],"max":[0.35615429282188416,0.47805657982826233,0.3586069643497467]},{"bufferView":1,"componentType":5121,"normalized":true,"count":1455,"type":"VEC4"},{"bufferView":2,"componentType":5123,"count":1632,"type":"SCALAR"}]}