{"asset":{"version":"2.0","generator":"wam scripts/export_items.py (agave)"},"scene":0,"scenes":[{"nodes":[0]}],"nodes":[{"name":"agave","mesh":0}],"meshes":[{"primitives":[{"attributes":{"POSITION":0,"COLOR_0":1},"indices":2,"material":0}]}],"materials":[{"name":"agave","pbrMetallicRoughness":{"baseColorFactor":[1,1,1,1],"metallicFactor":0,"roughnessFactor":0.85}}],"buffers":[{"byteLength":33372,"uri":"data:application/octet-stream;base64,"}],"bufferViews":[{"buffer":0,"byteOffset":0,"byteLength":21456,"target":34962},{"buffer":0,"byteOffset":21456,"byteLength":7152,"target":34962},{"buffer":0,"byteOffset":28608,"byteLength":4764,"target":34963}],"accessors":[{"bufferView":0,"componentType":5126,"count":1788,"type":"VEC3","min":[-0.6248201131820679,0.0,-0.5770258903503418],"max":[0.6248201131820679,1.4303431510925293,0.20994751155376434]},{"bufferView":1,"componentType":5121,"normalized":true,"count":1788,"type":"VEC4"},{"bufferView":2,"componentType":5123,"count":2382,"type":"SCALAR"}]}