{"asset":{"version":"2.0","generator":"wam scripts/export_items.py (aloe)"},"scene":0,"scenes":[{"nodes":[0]}],"nodes":[{"name":"aloe","mesh":0}],"meshes":[{"primitives":[{"attributes":{"POSITION":0,"COLOR_0":1},"indices":2,"material":0}]}],"materials":[{"name":"aloe","pbrMetallicRoughness":{"baseColorFactor":[1,1,1,1],"metallicFactor":0,"roughnessFactor":0.85}}],"buffers":[{"byteLength":17856,"uri":"data:application/octet-stream;base64,"}],"bufferViews":[{"buffer":0,"byteOffset":0,"byteLength":11376,"target":34962},{"buffer":0,"byteOffset":11376,"byteLength":3792,"target":34962},{"buffer":0,"byteOffset":15168,"byteLength":2688,"target":34963}],"accessors":[{"bufferView":0,"componentType":5126,"count":948,"type":"VEC3","min":[-0.1617203950881958,-0.004871378652751446,-0.13182823359966278],"max":[0.1617203950881958,0.1754726767539978,0.15144895017147064]},{"bufferView":1,"componentType":5121,"normalized":true,"count":948,"type":"VEC4"},{"bufferView":2,"componentType":5123,"count":1344,"type":"SCALAR"}]}