{"asset":{"version":"2.0","generator":"wam scripts/export_items.py (alpine_aster)"},"scene":0,"scenes":[{"nodes":[0]}],"nodes":[{"name":"alpine_aster","mesh":0}],"meshes":[{"primitives":[{"attributes":{"POSITION":0,"COLOR_0":1},"indices":2,"material":0}]}],"materials":[{"name":"alpine_aster","pbrMetallicRoughness":{"baseColorFactor":[1,1,1,1],"metallicFactor":0,"roughnessFactor":0.85}}],"buffers":[{"byteLength":33600,"uri":"data:application/octet-stream;base64,"}],"bufferViews":[{"buffer":0,"byteOffset":0,"byteLength":22320,"target":34962},{"buffer":0,"byteOffset":22320,"byteLength":7440,"target":34962},{"buffer":0,"byteOffset":29760,"byteLength":3840,"target":34963}],"accessors":[{"bufferView":0,"componentType":5126,"count":1860,"type":"VEC3","min":[-0.11457768827676773,-0.003636652836576104,-0.09253253042697906],"max":[0.10720110684633255,0.09072432667016983,0.0999939888715744]},{"bufferView":1,"componentType":5121,"normalized":true,"count":1860,"type":"VEC4"},{"bufferView":2,"componentType":5123,"count":1920,"type":"SCALAR"}]}