{"asset":{"version":"2.0","generator":"wam scripts/export_items.py (amethyst)"},"scene":0,"scenes":[{"nodes":[0]}],"nodes":[{"name":"amethyst","mesh":0}],"meshes":[{"primitives":[{"attributes":{"POSITION":0,"COLOR_0":1},"indices":2,"material":0}]}],"materials":[{"name":"amethyst","pbrMetallicRoughness":{"baseColorFactor":[1,1,1,1],"metallicFactor":0,"roughnessFactor":0.85}}],"buffers":[{"byteLength":5592,"uri":"data:application/octet-stream;base64,"}],"bufferViews":[{"buffer":0,"byteOffset":0,"byteLength":3384,"target":34962},{"buffer":0,"byteOffset":3384,"byteLength":1128,"target":34962},{"buffer":0,"byteOffset":4512,"byteLength":1080,"target":34963}],"accessors":[{"bufferView":0,"componentType":5126,"count":282,"type":"VEC3","min":[-0.04617917910218239,-0.00394725427031517,-0.05676060542464256],"max":[0.07163268327713013,0.2356676161289215,0.07137969881296158]},{"bufferView":1,"componentType":5121,"normalized":true,"count":282,"type":"VEC4"},{"bufferView":2,"componentType":5123,"count":540,"type":"SCALAR"}]}