{"asset":{"version":"2.0","generator":"wam scripts/export_items.py (apple_tree)"},"scene":0,"scenes":[{"nodes":[0]}],"nodes":[{"name":"apple_tree","mesh":0}],"meshes":[{"primitives":[{"attributes":{"POSITION":0,"COLOR_0":1},"indices":2,"material":0}]}],"materials":[{"name":"apple_tree","pbrMetallicRoughness":{"baseColorFactor":[1,1,1,1],"metallicFactor":0,"roughnessFactor":0.85}}],"buffers":[{"byteLength":58104,"uri":"data:application/octet-stream;base64,"}],"bufferViews":[{"buffer":0,"byteOffset":0,"byteLength":37152,"target":34962},{"buffer":0,"byteOffset":37152,"byteLength":12384,"target":34962},{"buffer":0,"byteOffset":49536,"byteLength":8568,"target":34963}],"accessors":[{"bufferView":0,"componentType":5126,"count":3096,"type":"VEC3","min":[-1.7123528718948364,0.0,-1.117598056793213],"max":[1.7123528718948364,3.9516749382019043,1.8955161571502686]},{"bufferView":1,"componentType":5121,"normalized":true,"count":3096,"type":"VEC4"},{"bufferView":2,"componentType":5123,"count":4284,"type":"SCALAR"}]}