{"asset":{"version":"2.0","generator":"wam scripts/export_items.py (armour_boots)"},"scene":0,"scenes":[{"nodes":[0]}],"nodes":[{"name":"armour_boots","mesh":0}],"meshes":[{"primitives":[{"attributes":{"POSITION":0,"COLOR_0":1},"indices":2,"material":0}]}],"materials":[{"name":"armour_boots","pbrMetallicRoughness":{"baseColorFactor":[1,1,1,1],"metallicFactor":0,"roughnessFactor":0.85}}],"buffers":[{"byteLength":16416,"uri":"data:application/octet-stream;base64,"}],"bufferViews":[{"buffer":0,"byteOffset":0,"byteLength":10800,"target":34962},{"buffer":0,"byteOffset":10800,"byteLength":3600,"target":34962},{"buffer":0,"byteOffset":14400,"byteLength":2016,"target":34963}],"accessors":[{"bufferView":0,"componentType":5126,"count":900,"type":"VEC3","min":[-0.08461607992649078,-9.71445150682915e-19,-0.0636342391371727],"max":[0.08461607992649078,0.12880000472068787,0.08978186547756195]},{"bufferView":1,"componentType":5121,"normalized":true,"count":900,"type":"VEC4"},{"bufferView":2,"componentType":5123,"count":1008,"type":"SCALAR"}]}