{"asset":{"version":"2.0","generator":"wam scripts/export_items.py (armour_chest)"},"scene":0,"scenes":[{"nodes":[0]}],"nodes":[{"name":"armour_chest","mesh":0}],"meshes":[{"primitives":[{"attributes":{"POSITION":0,"COLOR_0":1},"indices":2,"material":0}]}],"materials":[{"name":"armour_chest","pbrMetallicRoughness":{"baseColorFactor":[1,1,1,1],"metallicFactor":0,"roughnessFactor":0.85}}],"buffers":[{"byteLength":13200,"uri":"data:application/octet-stream;base64,"}],"bufferViews":[{"buffer":0,"byteOffset":0,"byteLength":8496,"target":34962},{"buffer":0,"byteOffset":8496,"byteLength":2832,"target":34962},{"buffer":0,"byteOffset":11328,"byteLength":1872,"target":34963}],"accessors":[{"bufferView":0,"componentType":5126,"count":708,"type":"VEC3","min":[-0.24533793330192566,0.0,-0.08031672984361649],"max":[0.24533793330192566,0.3199663758277893,0.08691622316837311]},{"bufferView":1,"componentType":5121,"normalized":true,"count":708,"type":"VEC4"},{"bufferView":2,"componentType":5123,"count":936,"type":"SCALAR"}]}