{"asset":{"version":"2.0","generator":"wam scripts/export_items.py (armour_legs)"},"scene":0,"scenes":[{"nodes":[0]}],"nodes":[{"name":"armour_legs","mesh":0}],"meshes":[{"primitives":[{"attributes":{"POSITION":0,"COLOR_0":1},"indices":2,"material":0}]}],"materials":[{"name":"armour_legs","pbrMetallicRoughness":{"baseColorFactor":[1,1,1,1],"metallicFactor":0,"roughnessFactor":0.85}}],"buffers":[{"byteLength":11936,"uri":"data:application/octet-stream;base64,"}],"bufferViews":[{"buffer":0,"byteOffset":0,"byteLength":7584,"target":34962},{"buffer":0,"byteOffset":7584,"byteLength":2528,"target":34962},{"buffer":0,"byteOffset":10112,"byteLength":1824,"target":34963}],"accessors":[{"bufferView":0,"componentType":5126,"count":632,"type":"VEC3","min":[-0.12443656474351883,-0.0004378841258585453,-0.07506521046161652],"max":[0.12443656474351883,0.4950000047683716,0.07506521046161652]},{"bufferView":1,"componentType":5121,"normalized":true,"count":632,"type":"VEC4"},{"bufferView":2,"componentType":5123,"count":912,"type":"SCALAR"}]}