{"asset":{"version":"2.0","generator":"wam scripts/export_items.py (armour_helm)"},"scene":0,"scenes":[{"nodes":[0]}],"nodes":[{"name":"armour_helm","mesh":0}],"meshes":[{"primitives":[{"attributes":{"POSITION":0,"COLOR_0":1},"indices":2,"material":0}]}],"materials":[{"name":"armour_helm","pbrMetallicRoughness":{"baseColorFactor":[1,1,1,1],"metallicFactor":0,"roughnessFactor":0.85}}],"buffers":[{"byteLength":7312,"uri":"data:application/octet-stream;base64,"}],"bufferViews":[{"buffer":0,"byteOffset":0,"byteLength":4800,"target":34962},{"buffer":0,"byteOffset":4800,"byteLength":1600,"target":34962},{"buffer":0,"byteOffset":6400,"byteLength":912,"target":34963}],"accessors":[{"bufferView":0,"componentType":5126,"count":400,"type":"VEC3","min":[-0.13895148038864136,0.0,-0.13008223474025726],"max":[0.13895148038864136,0.3058808743953705,0.14150355756282806]},{"bufferView":1,"componentType":5121,"normalized":true,"count":400,"type":"VEC4"},{"bufferView":2,"componentType":5123,"count":456,"type":"SCALAR"}]}