{"asset":{"version":"2.0","generator":"wam scripts/export_items.py (bread)"},"scene":0,"scenes":[{"nodes":[0]}],"nodes":[{"name":"bread","mesh":0}],"meshes":[{"primitives":[{"attributes":{"POSITION":0,"COLOR_0":1},"indices":2,"material":0}]}],"materials":[{"name":"bread","pbrMetallicRoughness":{"baseColorFactor":[1,1,1,1],"metallicFactor":0,"roughnessFactor":0.85}}],"buffers":[{"byteLength":3584,"uri":"data:application/octet-stream;base64,"}],"bufferViews":[{"buffer":0,"byteOffset":0,"byteLength":1968,"target":34962},{"buffer":0,"byteOffset":1968,"byteLength":656,"target":34962},{"buffer":0,"byteOffset":2624,"byteLength":960,"target":34963}],"accessors":[{"bufferView":0,"componentType":5126,"count":164,"type":"VEC3","min":[-0.05127531290054321,-0.006750000175088644,-0.00048802458331920207],"max":[0.05127531290054321,0.21607500314712524,0.06880293786525726]},{"bufferView":1,"componentType":5121,"normalized":true,"count":164,"type":"VEC4"},{"bufferView":2,"componentType":5123,"count":480,"type":"SCALAR"}]}