{"asset":{"version":"2.0","generator":"wam scripts/export_items.py (cactusfruit)"},"scene":0,"scenes":[{"nodes":[0]}],"nodes":[{"name":"cactusfruit","mesh":0}],"meshes":[{"primitives":[{"attributes":{"POSITION":0,"COLOR_0":1},"indices":2,"material":0}]}],"materials":[{"name":"cactusfruit","pbrMetallicRoughness":{"baseColorFactor":[1,1,1,1],"metallicFactor":0,"roughnessFactor":0.85}}],"buffers":[{"byteLength":17844,"uri":"data:application/octet-stream;base64,"}],"bufferViews":[{"buffer":0,"byteOffset":0,"byteLength":10836,"target":34962},{"buffer":0,"byteOffset":10836,"byteLength":3612,"target":34962},{"buffer":0,"byteOffset":14448,"byteLength":3396,"target":34963}],"accessors":[{"bufferView":0,"componentType":5126,"count":903,"type":"VEC3","min":[-0.24090468883514404,-0.0036258103791624308,-0.33496686816215515],"max":[0.24090468883514404,1.5769637823104858,0.14226208627223969]},{"bufferView":1,"componentType":5121,"normalized":true,"count":903,"type":"VEC4"},{"bufferView":2,"componentType":5123,"count":1698,"type":"SCALAR"}]}