{"asset":{"version":"2.0","generator":"wam scripts/export_items.py (cave_mushroom)"},"scene":0,"scenes":[{"nodes":[0]}],"nodes":[{"name":"cave_mushroom","mesh":0}],"meshes":[{"primitives":[{"attributes":{"POSITION":0,"COLOR_0":1},"indices":2,"material":0}]}],"materials":[{"name":"cave_mushroom","pbrMetallicRoughness":{"baseColorFactor":[1,1,1,1],"metallicFactor":0,"roughnessFactor":0.85}}],"buffers":[{"byteLength":32572,"uri":"data:application/octet-stream;base64,"}],"bufferViews":[{"buffer":0,"byteOffset":0,"byteLength":21360,"target":34962},{"buffer":0,"byteOffset":21360,"byteLength":7120,"target":34962},{"buffer":0,"byteOffset":28480,"byteLength":4092,"target":34963}],"accessors":[{"bufferView":0,"componentType":5126,"count":1780,"type":"VEC3","min":[-0.18732930719852448,-0.0014246504288166761,-0.19309869408607483],"max":[0.1997331827878952,0.20882001519203186,0.17426510155200958]},{"bufferView":1,"componentType":5121,"normalized":true,"count":1780,"type":"VEC4"},{"bufferView":2,"componentType":5123,"count":2046,"type":"SCALAR"}]}