{"asset":{"version":"2.0","generator":"wam scripts/export_items.py (charcoal)"},"scene":0,"scenes":[{"nodes":[0]}],"nodes":[{"name":"charcoal","mesh":0}],"meshes":[{"primitives":[{"attributes":{"POSITION":0,"COLOR_0":1},"indices":2,"material":0}]}],"materials":[{"name":"charcoal","pbrMetallicRoughness":{"baseColorFactor":[1,1,1,1],"metallicFactor":0,"roughnessFactor":0.85}}],"buffers":[{"byteLength":1888,"uri":"data:application/octet-stream;base64,"}],"bufferViews":[{"buffer":0,"byteOffset":0,"byteLength":1056,"target":34962},{"buffer":0,"byteOffset":1056,"byteLength":352,"target":34962},{"buffer":0,"byteOffset":1408,"byteLength":480,"target":34963}],"accessors":[{"bufferView":0,"componentType":5126,"count":88,"type":"VEC3","min":[-0.03940266743302345,-0.003670250531286001,-0.061453770846128464],"max":[0.07340143620967865,0.26473310589790344,0.02478628233075142]},{"bufferView":1,"componentType":5121,"normalized":true,"count":88,"type":"VEC4"},{"bufferView":2,"componentType":5123,"count":240,"type":"SCALAR"}]}