{"asset":{"version":"2.0","generator":"wam scripts/export_items.py (cherry_tree)"},"scene":0,"scenes":[{"nodes":[0]}],"nodes":[{"name":"cherry_tree","mesh":0}],"meshes":[{"primitives":[{"attributes":{"POSITION":0,"COLOR_0":1},"indices":2,"material":0}]}],"materials":[{"name":"cherry_tree","pbrMetallicRoughness":{"baseColorFactor":[1,1,1,1],"metallicFactor":0,"roughnessFactor":0.85}}],"buffers":[{"byteLength":91448,"uri":"data:application/octet-stream;base64,"}],"bufferViews":[{"buffer":0,"byteOffset":0,"byteLength":58704,"target":34962},{"buffer":0,"byteOffset":58704,"byteLength":19568,"target":34962},{"buffer":0,"byteOffset":78272,"byteLength":13176,"target":34963}],"accessors":[{"bufferView":0,"componentType":5126,"count":4892,"type":"VEC3","min":[-1.8629307746887207,0.0,-1.479553461074829],"max":[1.8629307746887207,3.0761001110076904,1.5472453832626343]},{"bufferView":1,"componentType":5121,"normalized":true,"count":4892,"type":"VEC4"},{"bufferView":2,"componentType":5123,"count":6588,"type":"SCALAR"}]}