{"asset":{"version":"2.0","generator":"wam scripts/export_items.py (cinder)"},"scene":0,"scenes":[{"nodes":[0]}],"nodes":[{"name":"cinder","mesh":0}],"meshes":[{"primitives":[{"attributes":{"POSITION":0,"COLOR_0":1},"indices":2,"material":0}]}],"materials":[{"name":"cinder","pbrMetallicRoughness":{"baseColorFactor":[1,1,1,1],"metallicFactor":0,"roughnessFactor":0.85}}],"buffers":[{"byteLength":6492,"uri":"data:application/octet-stream;base64,"}],"bufferViews":[{"buffer":0,"byteOffset":0,"byteLength":3924,"target":34962},{"buffer":0,"byteOffset":3924,"byteLength":1308,"target":34962},{"buffer":0,"byteOffset":5232,"byteLength":1260,"target":34963}],"accessors":[{"bufferView":0,"componentType":5126,"count":327,"type":"VEC3","min":[-0.08396287262439728,-0.0024950497318059206,-0.08792494982481003],"max":[0.13942976295948029,0.20027020573616028,0.08136124163866043]},{"bufferView":1,"componentType":5121,"normalized":true,"count":327,"type":"VEC4"},{"bufferView":2,"componentType":5123,"count":630,"type":"SCALAR"}]}