{"asset":{"version":"2.0","generator":"wam scripts/export_items.py (clover)"},"scene":0,"scenes":[{"nodes":[0]}],"nodes":[{"name":"clover","mesh":0}],"meshes":[{"primitives":[{"attributes":{"POSITION":0,"COLOR_0":1},"indices":2,"material":0}]}],"materials":[{"name":"clover","pbrMetallicRoughness":{"baseColorFactor":[1,1,1,1],"metallicFactor":0,"roughnessFactor":0.85}}],"buffers":[{"byteLength":32288,"uri":"data:application/octet-stream;base64,"}],"bufferViews":[{"buffer":0,"byteOffset":0,"byteLength":21300,"target":34962},{"buffer":0,"byteOffset":21300,"byteLength":7100,"target":34962},{"buffer":0,"byteOffset":28400,"byteLength":3888,"target":34963}],"accessors":[{"bufferView":0,"componentType":5126,"count":1775,"type":"VEC3","min":[-0.10636541992425919,-0.0037554525770246983,-0.1122046560049057],"max":[0.13146184384822845,0.14311514794826508,0.116940438747406]},{"bufferView":1,"componentType":5121,"normalized":true,"count":1775,"type":"VEC4"},{"bufferView":2,"componentType":5123,"count":1944,"type":"SCALAR"}]}