{"asset":{"version":"2.0","generator":"wam scripts/export_items.py (coal)"},"scene":0,"scenes":[{"nodes":[0]}],"nodes":[{"name":"coal","mesh":0}],"meshes":[{"primitives":[{"attributes":{"POSITION":0,"COLOR_0":1},"indices":2,"material":0}]}],"materials":[{"name":"coal","pbrMetallicRoughness":{"baseColorFactor":[1,1,1,1],"metallicFactor":0,"roughnessFactor":0.85}}],"buffers":[{"byteLength":1184,"uri":"data:application/octet-stream;base64,"}],"bufferViews":[{"buffer":0,"byteOffset":0,"byteLength":528,"target":34962},{"buffer":0,"byteOffset":528,"byteLength":176,"target":34962},{"buffer":0,"byteOffset":704,"byteLength":480,"target":34963}],"accessors":[{"bufferView":0,"componentType":5126,"count":44,"type":"VEC3","min":[-0.08717739582061768,-0.005647445563226938,-0.08821085095405579],"max":[0.14636670053005219,0.1823691874742508,0.09948164224624634]},{"bufferView":1,"componentType":5121,"normalized":true,"count":44,"type":"VEC4"},{"bufferView":2,"componentType":5123,"count":240,"type":"SCALAR"}]}