{"asset":{"version":"2.0","generator":"wam scripts/export_items.py (cocoa_tree)"},"scene":0,"scenes":[{"nodes":[0]}],"nodes":[{"name":"cocoa_tree","mesh":0}],"meshes":[{"primitives":[{"attributes":{"POSITION":0,"COLOR_0":1},"indices":2,"material":0}]}],"materials":[{"name":"cocoa_tree","pbrMetallicRoughness":{"baseColorFactor":[1,1,1,1],"metallicFactor":0,"roughnessFactor":0.85}}],"buffers":[{"byteLength":80200,"uri":"data:application/octet-stream;base64,"}],"bufferViews":[{"buffer":0,"byteOffset":0,"byteLength":51168,"target":34962},{"buffer":0,"byteOffset":51168,"byteLength":17056,"target":34962},{"buffer":0,"byteOffset":68224,"byteLength":11976,"target":34963}],"accessors":[{"bufferView":0,"componentType":5126,"count":4264,"type":"VEC3","min":[-1.7213984727859497,0.0,-1.4700419902801514],"max":[1.7213984727859497,3.002469062805176,0.4664701223373413]},{"bufferView":1,"componentType":5121,"normalized":true,"count":4264,"type":"VEC4"},{"bufferView":2,"componentType":5123,"count":5988,"type":"SCALAR"}]}