{"asset":{"version":"2.0","generator":"wam scripts/export_items.py (coin)"},"scene":0,"scenes":[{"nodes":[0]}],"nodes":[{"name":"coin","mesh":0}],"meshes":[{"primitives":[{"attributes":{"POSITION":0,"COLOR_0":1},"indices":2,"material":0}]}],"materials":[{"name":"coin","pbrMetallicRoughness":{"baseColorFactor":[1,1,1,1],"metallicFactor":0,"roughnessFactor":0.85}}],"buffers":[{"byteLength":9216,"uri":"data:application/octet-stream;base64,"}],"bufferViews":[{"buffer":0,"byteOffset":0,"byteLength":5616,"target":34962},{"buffer":0,"byteOffset":5616,"byteLength":1872,"target":34962},{"buffer":0,"byteOffset":7488,"byteLength":1728,"target":34963}],"accessors":[{"bufferView":0,"componentType":5126,"count":468,"type":"VEC3","min":[-0.07901506870985031,0.0009849327616393566,-0.01696000061929226],"max":[0.07901506870985031,0.15901507437229156,0.01696000061929226]},{"bufferView":1,"componentType":5121,"normalized":true,"count":468,"type":"VEC4"},{"bufferView":2,"componentType":5123,"count":864,"type":"SCALAR"}]}