{"asset":{"version":"2.0","generator":"wam scripts/export_items.py (cooked_poultry)"},"scene":0,"scenes":[{"nodes":[0]}],"nodes":[{"name":"cooked_poultry","mesh":0}],"meshes":[{"primitives":[{"attributes":{"POSITION":0,"COLOR_0":1},"indices":2,"material":0}]}],"materials":[{"name":"cooked_poultry","pbrMetallicRoughness":{"baseColorFactor":[1,1,1,1],"metallicFactor":0,"roughnessFactor":0.85}}],"buffers":[{"byteLength":11360,"uri":"data:application/octet-stream;base64,"}],"bufferViews":[{"buffer":0,"byteOffset":0,"byteLength":7440,"target":34962},{"buffer":0,"byteOffset":7440,"byteLength":2480,"target":34962},{"buffer":0,"byteOffset":9920,"byteLength":1440,"target":34963}],"accessors":[{"bufferView":0,"componentType":5126,"count":620,"type":"VEC3","min":[-0.06929096579551697,-0.003131575183942914,-0.07284369319677353],"max":[0.07476296275854111,0.32508954405784607,0.06591716408729553]},{"bufferView":1,"componentType":5121,"normalized":true,"count":620,"type":"VEC4"},{"bufferView":2,"componentType":5123,"count":720,"type":"SCALAR"}]}