{"asset":{"version":"2.0","generator":"wam scripts/export_items.py (copper_ingot)"},"scene":0,"scenes":[{"nodes":[0]}],"nodes":[{"name":"copper_ingot","mesh":0}],"meshes":[{"primitives":[{"attributes":{"POSITION":0,"COLOR_0":1},"indices":2,"material":0}]}],"materials":[{"name":"copper_ingot","pbrMetallicRoughness":{"baseColorFactor":[1,1,1,1],"metallicFactor":0,"roughnessFactor":0.85}}],"buffers":[{"byteLength":592,"uri":"data:application/octet-stream;base64,"}],"bufferViews":[{"buffer":0,"byteOffset":0,"byteLength":264,"target":34962},{"buffer":0,"byteOffset":264,"byteLength":88,"target":34962},{"buffer":0,"byteOffset":352,"byteLength":240,"target":34963}],"accessors":[{"bufferView":0,"componentType":5126,"count":22,"type":"VEC3","min":[-0.048108529299497604,0.0,0.0031457345467060804],"max":[0.048108529299497604,0.24799999594688416,0.0512542650103569]},{"bufferView":1,"componentType":5121,"normalized":true,"count":22,"type":"VEC4"},{"bufferView":2,"componentType":5123,"count":120,"type":"SCALAR"}]}