{"asset":{"version":"2.0","generator":"wam scripts/export_items.py (coral_dead)"},"scene":0,"scenes":[{"nodes":[0]}],"nodes":[{"name":"coral_dead","mesh":0}],"meshes":[{"primitives":[{"attributes":{"POSITION":0,"COLOR_0":1},"indices":2,"material":0}]}],"materials":[{"name":"coral_dead","pbrMetallicRoughness":{"baseColorFactor":[1,1,1,1],"metallicFactor":0,"roughnessFactor":0.85}}],"buffers":[{"byteLength":12992,"uri":"data:application/octet-stream;base64,"}],"bufferViews":[{"buffer":0,"byteOffset":0,"byteLength":8304,"target":34962},{"buffer":0,"byteOffset":8304,"byteLength":2768,"target":34962},{"buffer":0,"byteOffset":11072,"byteLength":1920,"target":34963}],"accessors":[{"bufferView":0,"componentType":5126,"count":692,"type":"VEC3","min":[-0.2562260031700134,-0.00381074333563447,-0.16101911664009094],"max":[0.16330842673778534,0.6306276321411133,0.1710614264011383]},{"bufferView":1,"componentType":5121,"normalized":true,"count":692,"type":"VEC4"},{"bufferView":2,"componentType":5123,"count":960,"type":"SCALAR"}]}