{"asset":{"version":"2.0","generator":"wam scripts/export_items.py (coral_branch)"},"scene":0,"scenes":[{"nodes":[0]}],"nodes":[{"name":"coral_branch","mesh":0}],"meshes":[{"primitives":[{"attributes":{"POSITION":0,"COLOR_0":1},"indices":2,"material":0}]}],"materials":[{"name":"coral_branch","pbrMetallicRoughness":{"baseColorFactor":[1,1,1,1],"metallicFactor":0,"roughnessFactor":0.85}}],"buffers":[{"byteLength":14944,"uri":"data:application/octet-stream;base64,"}],"bufferViews":[{"buffer":0,"byteOffset":0,"byteLength":9552,"target":34962},{"buffer":0,"byteOffset":9552,"byteLength":3184,"target":34962},{"buffer":0,"byteOffset":12736,"byteLength":2208,"target":34963}],"accessors":[{"bufferView":0,"componentType":5126,"count":796,"type":"VEC3","min":[-0.2562260031700134,-0.00381074333563447,-0.16101911664009094],"max":[0.15835613012313843,0.6613017916679382,0.1710614264011383]},{"bufferView":1,"componentType":5121,"normalized":true,"count":796,"type":"VEC4"},{"bufferView":2,"componentType":5123,"count":1104,"type":"SCALAR"}]}