{"asset":{"version":"2.0","generator":"wam scripts/export_items.py (coral_brain)"},"scene":0,"scenes":[{"nodes":[0]}],"nodes":[{"name":"coral_brain","mesh":0}],"meshes":[{"primitives":[{"attributes":{"POSITION":0,"COLOR_0":1},"indices":2,"material":0}]}],"materials":[{"name":"coral_brain","pbrMetallicRoughness":{"baseColorFactor":[1,1,1,1],"metallicFactor":0,"roughnessFactor":0.85}}],"buffers":[{"byteLength":8832,"uri":"data:application/octet-stream;base64,"}],"bufferViews":[{"buffer":0,"byteOffset":0,"byteLength":5328,"target":34962},{"buffer":0,"byteOffset":5328,"byteLength":1776,"target":34962},{"buffer":0,"byteOffset":7104,"byteLength":1728,"target":34963}],"accessors":[{"bufferView":0,"componentType":5126,"count":444,"type":"VEC3","min":[-0.20883315801620483,0.0,-0.1910601258277893],"max":[0.3186628818511963,0.2772786319255829,0.1973925530910492]},{"bufferView":1,"componentType":5121,"normalized":true,"count":444,"type":"VEC4"},{"bufferView":2,"componentType":5123,"count":864,"type":"SCALAR"}]}