{"asset":{"version":"2.0","generator":"wam scripts/export_items.py (coral_fan)"},"scene":0,"scenes":[{"nodes":[0]}],"nodes":[{"name":"coral_fan","mesh":0}],"meshes":[{"primitives":[{"attributes":{"POSITION":0,"COLOR_0":1},"indices":2,"material":0}]}],"materials":[{"name":"coral_fan","pbrMetallicRoughness":{"baseColorFactor":[1,1,1,1],"metallicFactor":0,"roughnessFactor":0.85}}],"buffers":[{"byteLength":16056,"uri":"data:application/octet-stream;base64,"}],"bufferViews":[{"buffer":0,"byteOffset":0,"byteLength":10224,"target":34962},{"buffer":0,"byteOffset":10224,"byteLength":3408,"target":34962},{"buffer":0,"byteOffset":13632,"byteLength":2424,"target":34963}],"accessors":[{"bufferView":0,"componentType":5126,"count":852,"type":"VEC3","min":[-0.40774455666542053,-0.003061653347685933,-0.05841982737183571],"max":[0.40774455666542053,0.7733777761459351,0.05841982737183571]},{"bufferView":1,"componentType":5121,"normalized":true,"count":852,"type":"VEC4"},{"bufferView":2,"componentType":5123,"count":1212,"type":"SCALAR"}]}