{"asset":{"version":"2.0","generator":"wam scripts/export_items.py (cotton_grass)"},"scene":0,"scenes":[{"nodes":[0]}],"nodes":[{"name":"cotton_grass","mesh":0}],"meshes":[{"primitives":[{"attributes":{"POSITION":0,"COLOR_0":1},"indices":2,"material":0}]}],"materials":[{"name":"cotton_grass","pbrMetallicRoughness":{"baseColorFactor":[1,1,1,1],"metallicFactor":0,"roughnessFactor":0.85}}],"buffers":[{"byteLength":29888,"uri":"data:application/octet-stream;base64,"}],"bufferViews":[{"buffer":0,"byteOffset":0,"byteLength":19680,"target":34962},{"buffer":0,"byteOffset":19680,"byteLength":6560,"target":34962},{"buffer":0,"byteOffset":26240,"byteLength":3648,"target":34963}],"accessors":[{"bufferView":0,"componentType":5126,"count":1640,"type":"VEC3","min":[-0.22318238019943237,-0.00415626959875226,-0.1649036407470703],"max":[0.19406186044216156,0.617050051689148,0.17495572566986084]},{"bufferView":1,"componentType":5121,"normalized":true,"count":1640,"type":"VEC4"},{"bufferView":2,"componentType":5123,"count":1824,"type":"SCALAR"}]}