{"asset":{"version":"2.0","generator":"wam scripts/export_items.py (crab_claw)"},"scene":0,"scenes":[{"nodes":[0]}],"nodes":[{"name":"crab_claw","mesh":0}],"meshes":[{"primitives":[{"attributes":{"POSITION":0,"COLOR_0":1},"indices":2,"material":0}]}],"materials":[{"name":"crab_claw","pbrMetallicRoughness":{"baseColorFactor":[1,1,1,1],"metallicFactor":0,"roughnessFactor":0.85}}],"buffers":[{"byteLength":9024,"uri":"data:application/octet-stream;base64,"}],"bufferViews":[{"buffer":0,"byteOffset":0,"byteLength":5760,"target":34962},{"buffer":0,"byteOffset":5760,"byteLength":1920,"target":34962},{"buffer":0,"byteOffset":7680,"byteLength":1344,"target":34963}],"accessors":[{"bufferView":0,"componentType":5126,"count":480,"type":"VEC3","min":[-0.022173108533024788,-0.001255616545677185,-0.02060985565185547],"max":[0.022173108533024788,0.1795177310705185,0.14184623956680298]},{"bufferView":1,"componentType":5121,"normalized":true,"count":480,"type":"VEC4"},{"bufferView":2,"componentType":5123,"count":672,"type":"SCALAR"}]}