{"asset":{"version":"2.0","generator":"wam scripts/export_items.py (crystal_cluster)"},"scene":0,"scenes":[{"nodes":[0]}],"nodes":[{"name":"crystal_cluster","mesh":0}],"meshes":[{"primitives":[{"attributes":{"POSITION":0,"COLOR_0":1},"indices":2,"material":0}]}],"materials":[{"name":"crystal_cluster","pbrMetallicRoughness":{"baseColorFactor":[1,1,1,1],"metallicFactor":0,"roughnessFactor":0.85}}],"buffers":[{"byteLength":23820,"uri":"data:application/octet-stream;base64,"}],"bufferViews":[{"buffer":0,"byteOffset":0,"byteLength":15660,"target":34962},{"buffer":0,"byteOffset":15660,"byteLength":5220,"target":34962},{"buffer":0,"byteOffset":20880,"byteLength":2940,"target":34963}],"accessors":[{"bufferView":0,"componentType":5126,"count":1305,"type":"VEC3","min":[-0.15741784870624542,-0.0048137507401406765,-0.14574448764324188],"max":[0.1628403514623642,0.34621715545654297,0.15254448354244232]},{"bufferView":1,"componentType":5121,"normalized":true,"count":1305,"type":"VEC4"},{"bufferView":2,"componentType":5123,"count":1470,"type":"SCALAR"}]}