{"asset":{"version":"2.0","generator":"wam scripts/export_items.py (crystal)"},"scene":0,"scenes":[{"nodes":[0]}],"nodes":[{"name":"crystal","mesh":0}],"meshes":[{"primitives":[{"attributes":{"POSITION":0,"COLOR_0":1},"indices":2,"material":0}]}],"materials":[{"name":"crystal","pbrMetallicRoughness":{"baseColorFactor":[1,1,1,1],"metallicFactor":0,"roughnessFactor":0.85}}],"buffers":[{"byteLength":3744,"uri":"data:application/octet-stream;base64,"}],"bufferViews":[{"buffer":0,"byteOffset":0,"byteLength":2268,"target":34962},{"buffer":0,"byteOffset":2268,"byteLength":756,"target":34962},{"buffer":0,"byteOffset":3024,"byteLength":720,"target":34963}],"accessors":[{"bufferView":0,"componentType":5126,"count":189,"type":"VEC3","min":[-0.04375115782022476,4.72514184366446e-05,-0.05593709647655487],"max":[0.07620973140001297,0.30817872285842896,0.05686159431934357]},{"bufferView":1,"componentType":5121,"normalized":true,"count":189,"type":"VEC4"},{"bufferView":2,"componentType":5123,"count":360,"type":"SCALAR"}]}