{"asset":{"version":"2.0","generator":"wam scripts/export_items.py (deathcap)"},"scene":0,"scenes":[{"nodes":[0]}],"nodes":[{"name":"deathcap","mesh":0}],"meshes":[{"primitives":[{"attributes":{"POSITION":0,"COLOR_0":1},"indices":2,"material":0}]}],"materials":[{"name":"deathcap","pbrMetallicRoughness":{"baseColorFactor":[1,1,1,1],"metallicFactor":0,"roughnessFactor":0.85}}],"buffers":[{"byteLength":44460,"uri":"data:application/octet-stream;base64,"}],"bufferViews":[{"buffer":0,"byteOffset":0,"byteLength":30240,"target":34962},{"buffer":0,"byteOffset":30240,"byteLength":10080,"target":34962},{"buffer":0,"byteOffset":40320,"byteLength":4140,"target":34963}],"accessors":[{"bufferView":0,"componentType":5126,"count":2520,"type":"VEC3","min":[-0.07329602539539337,0.00039323847158811986,-0.11104098707437515],"max":[0.16784238815307617,0.36613476276397705,0.1414220780134201]},{"bufferView":1,"componentType":5121,"normalized":true,"count":2520,"type":"VEC4"},{"bufferView":2,"componentType":5123,"count":2070,"type":"SCALAR"}]}