{"asset":{"version":"2.0","generator":"wam scripts/export_items.py (dried_kelp)"},"scene":0,"scenes":[{"nodes":[0]}],"nodes":[{"name":"dried_kelp","mesh":0}],"meshes":[{"primitives":[{"attributes":{"POSITION":0,"COLOR_0":1},"indices":2,"material":0}]}],"materials":[{"name":"dried_kelp","pbrMetallicRoughness":{"baseColorFactor":[1,1,1,1],"metallicFactor":0,"roughnessFactor":0.85}}],"buffers":[{"byteLength":3888,"uri":"data:application/octet-stream;base64,"}],"bufferViews":[{"buffer":0,"byteOffset":0,"byteLength":2376,"target":34962},{"buffer":0,"byteOffset":2376,"byteLength":792,"target":34962},{"buffer":0,"byteOffset":3168,"byteLength":720,"target":34963}],"accessors":[{"bufferView":0,"componentType":5126,"count":198,"type":"VEC3","min":[-0.09762540459632874,-0.0006476272246800363,-0.06812320649623871],"max":[0.09762540459632874,0.21645058691501617,0.06646062433719635]},{"bufferView":1,"componentType":5121,"normalized":true,"count":198,"type":"VEC4"},{"bufferView":2,"componentType":5123,"count":360,"type":"SCALAR"}]}