{"asset":{"version":"2.0","generator":"wam scripts/export_items.py (driftwood)"},"scene":0,"scenes":[{"nodes":[0]}],"nodes":[{"name":"driftwood","mesh":0}],"meshes":[{"primitives":[{"attributes":{"POSITION":0,"COLOR_0":1},"indices":2,"material":0}]}],"materials":[{"name":"driftwood","pbrMetallicRoughness":{"baseColorFactor":[1,1,1,1],"metallicFactor":0,"roughnessFactor":0.85}}],"buffers":[{"byteLength":14636,"uri":"data:application/octet-stream;base64,"}],"bufferViews":[{"buffer":0,"byteOffset":0,"byteLength":9312,"target":34962},{"buffer":0,"byteOffset":9312,"byteLength":3104,"target":34962},{"buffer":0,"byteOffset":12416,"byteLength":2220,"target":34963}],"accessors":[{"bufferView":0,"componentType":5126,"count":776,"type":"VEC3","min":[-0.2238175868988037,0.006043795961886644,-0.0689958706498146],"max":[0.35469767451286316,0.3554544746875763,0.1144314557313919]},{"bufferView":1,"componentType":5121,"normalized":true,"count":776,"type":"VEC4"},{"bufferView":2,"componentType":5123,"count":1110,"type":"SCALAR"}]}