{"asset":{"version":"2.0","generator":"wam scripts/export_items.py (feather)"},"scene":0,"scenes":[{"nodes":[0]}],"nodes":[{"name":"feather","mesh":0}],"meshes":[{"primitives":[{"attributes":{"POSITION":0,"COLOR_0":1},"indices":2,"material":0}]}],"materials":[{"name":"feather","pbrMetallicRoughness":{"baseColorFactor":[1,1,1,1],"metallicFactor":0,"roughnessFactor":0.85}}],"buffers":[{"byteLength":3912,"uri":"data:application/octet-stream;base64,"}],"bufferViews":[{"buffer":0,"byteOffset":0,"byteLength":2376,"target":34962},{"buffer":0,"byteOffset":2376,"byteLength":792,"target":34962},{"buffer":0,"byteOffset":3168,"byteLength":744,"target":34963}],"accessors":[{"bufferView":0,"componentType":5126,"count":198,"type":"VEC3","min":[-0.05650511756539345,-0.002698355121538043,-0.04058706387877464],"max":[0.023837167769670486,0.357204794883728,0.004240056034177542]},{"bufferView":1,"componentType":5121,"normalized":true,"count":198,"type":"VEC4"},{"bufferView":2,"componentType":5123,"count":372,"type":"SCALAR"}]}