{"asset":{"version":"2.0","generator":"wam scripts/export_items.py (fern)"},"scene":0,"scenes":[{"nodes":[0]}],"nodes":[{"name":"fern","mesh":0}],"meshes":[{"primitives":[{"attributes":{"POSITION":0,"COLOR_0":1},"indices":2,"material":0}]}],"materials":[{"name":"fern","pbrMetallicRoughness":{"baseColorFactor":[1,1,1,1],"metallicFactor":0,"roughnessFactor":0.85}}],"buffers":[{"byteLength":33296,"uri":"data:application/octet-stream;base64,"}],"bufferViews":[{"buffer":0,"byteOffset":0,"byteLength":21840,"target":34962},{"buffer":0,"byteOffset":21840,"byteLength":7280,"target":34962},{"buffer":0,"byteOffset":29120,"byteLength":4176,"target":34963}],"accessors":[{"bufferView":0,"componentType":5126,"count":1820,"type":"VEC3","min":[-0.3252619504928589,0.0,-0.29851627349853516],"max":[0.31927889585494995,0.4669441282749176,0.35168877243995667]},{"bufferView":1,"componentType":5121,"normalized":true,"count":1820,"type":"VEC4"},{"bufferView":2,"componentType":5123,"count":2088,"type":"SCALAR"}]}