{"asset":{"version":"2.0","generator":"wam scripts/export_items.py (firebloom)"},"scene":0,"scenes":[{"nodes":[0]}],"nodes":[{"name":"firebloom","mesh":0}],"meshes":[{"primitives":[{"attributes":{"POSITION":0,"COLOR_0":1},"indices":2,"material":0}]}],"materials":[{"name":"firebloom","pbrMetallicRoughness":{"baseColorFactor":[1,1,1,1],"metallicFactor":0,"roughnessFactor":0.85}}],"buffers":[{"byteLength":28536,"uri":"data:application/octet-stream;base64,"}],"bufferViews":[{"buffer":0,"byteOffset":0,"byteLength":18720,"target":34962},{"buffer":0,"byteOffset":18720,"byteLength":6240,"target":34962},{"buffer":0,"byteOffset":24960,"byteLength":3576,"target":34963}],"accessors":[{"bufferView":0,"componentType":5126,"count":1560,"type":"VEC3","min":[-0.2992735207080841,-0.005099405534565449,-0.2593229413032532],"max":[0.2992735207080841,1.029066562652588,0.28087353706359863]},{"bufferView":1,"componentType":5121,"normalized":true,"count":1560,"type":"VEC4"},{"bufferView":2,"componentType":5123,"count":1788,"type":"SCALAR"}]}