{"asset":{"version":"2.0","generator":"wam scripts/export_items.py (fishing_rod)"},"scene":0,"scenes":[{"nodes":[0]}],"nodes":[{"name":"fishing_rod","mesh":0}],"meshes":[{"primitives":[{"attributes":{"POSITION":0,"COLOR_0":1},"indices":2,"material":0}]}],"materials":[{"name":"fishing_rod","pbrMetallicRoughness":{"baseColorFactor":[1,1,1,1],"metallicFactor":0,"roughnessFactor":0.85}}],"buffers":[{"byteLength":18752,"uri":"data:application/octet-stream;base64,"}],"bufferViews":[{"buffer":0,"byteOffset":0,"byteLength":12768,"target":34962},{"buffer":0,"byteOffset":12768,"byteLength":4256,"target":34962},{"buffer":0,"byteOffset":17024,"byteLength":1728,"target":34963}],"accessors":[{"bufferView":0,"componentType":5126,"count":1064,"type":"VEC3","min":[-0.043108388781547546,0.0,-0.05270000174641609],"max":[0.15189999341964722,0.6267126798629761,0.21045584976673126]},{"bufferView":1,"componentType":5121,"normalized":true,"count":1064,"type":"VEC4"},{"bufferView":2,"componentType":5123,"count":864,"type":"SCALAR"}]}