{"asset":{"version":"2.0","generator":"wam scripts/export_items.py (flint)"},"scene":0,"scenes":[{"nodes":[0]}],"nodes":[{"name":"flint","mesh":0}],"meshes":[{"primitives":[{"attributes":{"POSITION":0,"COLOR_0":1},"indices":2,"material":0}]}],"materials":[{"name":"flint","pbrMetallicRoughness":{"baseColorFactor":[1,1,1,1],"metallicFactor":0,"roughnessFactor":0.85}}],"buffers":[{"byteLength":1648,"uri":"data:application/octet-stream;base64,"}],"bufferViews":[{"buffer":0,"byteOffset":0,"byteLength":912,"target":34962},{"buffer":0,"byteOffset":912,"byteLength":304,"target":34962},{"buffer":0,"byteOffset":1216,"byteLength":432,"target":34963}],"accessors":[{"bufferView":0,"componentType":5126,"count":76,"type":"VEC3","min":[-0.07954998314380646,0.0002304793451912701,-0.027915632352232933],"max":[0.058951906859874725,0.22352080047130585,0.022960133850574493]},{"bufferView":1,"componentType":5121,"normalized":true,"count":76,"type":"VEC4"},{"bufferView":2,"componentType":5123,"count":216,"type":"SCALAR"}]}