{"asset":{"version":"2.0","generator":"wam scripts/export_items.py (flower_gold)"},"scene":0,"scenes":[{"nodes":[0]}],"nodes":[{"name":"flower_gold","mesh":0}],"meshes":[{"primitives":[{"attributes":{"POSITION":0,"COLOR_0":1},"indices":2,"material":0}]}],"materials":[{"name":"flower_gold","pbrMetallicRoughness":{"baseColorFactor":[1,1,1,1],"metallicFactor":0,"roughnessFactor":0.85}}],"buffers":[{"byteLength":23704,"uri":"data:application/octet-stream;base64,"}],"bufferViews":[{"buffer":0,"byteOffset":0,"byteLength":15600,"target":34962},{"buffer":0,"byteOffset":15600,"byteLength":5200,"target":34962},{"buffer":0,"byteOffset":20800,"byteLength":2904,"target":34963}],"accessors":[{"bufferView":0,"componentType":5126,"count":1300,"type":"VEC3","min":[-0.09748506546020508,-0.0005329023697413504,-0.08968351036310196],"max":[0.09748506546020508,0.3650376796722412,0.07085596770048141]},{"bufferView":1,"componentType":5121,"normalized":true,"count":1300,"type":"VEC4"},{"bufferView":2,"componentType":5123,"count":1452,"type":"SCALAR"}]}