{"asset":{"version":"2.0","generator":"wam scripts/export_items.py (flower_red)"},"scene":0,"scenes":[{"nodes":[0]}],"nodes":[{"name":"flower_red","mesh":0}],"meshes":[{"primitives":[{"attributes":{"POSITION":0,"COLOR_0":1},"indices":2,"material":0}]}],"materials":[{"name":"flower_red","pbrMetallicRoughness":{"baseColorFactor":[1,1,1,1],"metallicFactor":0,"roughnessFactor":0.85}}],"buffers":[{"byteLength":17668,"uri":"data:application/octet-stream;base64,"}],"bufferViews":[{"buffer":0,"byteOffset":0,"byteLength":11640,"target":34962},{"buffer":0,"byteOffset":11640,"byteLength":3880,"target":34962},{"buffer":0,"byteOffset":15520,"byteLength":2148,"target":34963}],"accessors":[{"bufferView":0,"componentType":5126,"count":970,"type":"VEC3","min":[-0.11178654432296753,-0.0007102839881554246,-0.09511962532997131],"max":[0.11178654432296753,0.4032595455646515,0.09218276292085648]},{"bufferView":1,"componentType":5121,"normalized":true,"count":970,"type":"VEC4"},{"bufferView":2,"componentType":5123,"count":1074,"type":"SCALAR"}]}