{"asset":{"version":"2.0","generator":"wam scripts/export_items.py (flower_blue)"},"scene":0,"scenes":[{"nodes":[0]}],"nodes":[{"name":"flower_blue","mesh":0}],"meshes":[{"primitives":[{"attributes":{"POSITION":0,"COLOR_0":1},"indices":2,"material":0}]}],"materials":[{"name":"flower_blue","pbrMetallicRoughness":{"baseColorFactor":[1,1,1,1],"metallicFactor":0,"roughnessFactor":0.85}}],"buffers":[{"byteLength":15232,"uri":"data:application/octet-stream;base64,"}],"bufferViews":[{"buffer":0,"byteOffset":0,"byteLength":10020,"target":34962},{"buffer":0,"byteOffset":10020,"byteLength":3340,"target":34962},{"buffer":0,"byteOffset":13360,"byteLength":1872,"target":34963}],"accessors":[{"bufferView":0,"componentType":5126,"count":835,"type":"VEC3","min":[-0.09070750325918198,-0.0005329023697413504,-0.022874996066093445],"max":[0.09070750325918198,0.35989049077033997,0.14547567069530487]},{"bufferView":1,"componentType":5121,"normalized":true,"count":835,"type":"VEC4"},{"bufferView":2,"componentType":5123,"count":936,"type":"SCALAR"}]}