{"asset":{"version":"2.0","generator":"wam scripts/export_items.py (golden_grass)"},"scene":0,"scenes":[{"nodes":[0]}],"nodes":[{"name":"golden_grass","mesh":0}],"meshes":[{"primitives":[{"attributes":{"POSITION":0,"COLOR_0":1},"indices":2,"material":0}]}],"materials":[{"name":"golden_grass","pbrMetallicRoughness":{"baseColorFactor":[1,1,1,1],"metallicFactor":0,"roughnessFactor":0.85}}],"buffers":[{"byteLength":23944,"uri":"data:application/octet-stream;base64,"}],"bufferViews":[{"buffer":0,"byteOffset":0,"byteLength":15312,"target":34962},{"buffer":0,"byteOffset":15312,"byteLength":5104,"target":34962},{"buffer":0,"byteOffset":20416,"byteLength":3528,"target":34963}],"accessors":[{"bufferView":0,"componentType":5126,"count":1276,"type":"VEC3","min":[-0.3739128112792969,-0.0019359674770385027,-0.1602918654680252],"max":[0.2650303542613983,0.8750213384628296,0.3416410982608795]},{"bufferView":1,"componentType":5121,"normalized":true,"count":1276,"type":"VEC4"},{"bufferView":2,"componentType":5123,"count":1764,"type":"SCALAR"}]}