{"asset":{"version":"2.0","generator":"wam scripts/export_items.py (grape_1)"},"scene":0,"scenes":[{"nodes":[0]}],"nodes":[{"name":"grape_1","mesh":0}],"meshes":[{"primitives":[{"attributes":{"POSITION":0,"COLOR_0":1},"indices":2,"material":0}]}],"materials":[{"name":"grape_1","pbrMetallicRoughness":{"baseColorFactor":[1,1,1,1],"metallicFactor":0,"roughnessFactor":0.85}}],"buffers":[{"byteLength":11964,"uri":"data:application/octet-stream;base64,"}],"bufferViews":[{"buffer":0,"byteOffset":0,"byteLength":7308,"target":34962},{"buffer":0,"byteOffset":7308,"byteLength":2436,"target":34962},{"buffer":0,"byteOffset":9744,"byteLength":2220,"target":34963}],"accessors":[{"bufferView":0,"componentType":5126,"count":609,"type":"VEC3","min":[-0.24726948142051697,-0.003382612019777298,-0.2250281721353531],"max":[0.24726948142051697,1.012128472328186,0.27063465118408203]},{"bufferView":1,"componentType":5121,"normalized":true,"count":609,"type":"VEC4"},{"bufferView":2,"componentType":5123,"count":1110,"type":"SCALAR"}]}