{"asset":{"version":"2.0","generator":"wam scripts/export_items.py (grape_2)"},"scene":0,"scenes":[{"nodes":[0]}],"nodes":[{"name":"grape_2","mesh":0}],"meshes":[{"primitives":[{"attributes":{"POSITION":0,"COLOR_0":1},"indices":2,"material":0}]}],"materials":[{"name":"grape_2","pbrMetallicRoughness":{"baseColorFactor":[1,1,1,1],"metallicFactor":0,"roughnessFactor":0.85}}],"buffers":[{"byteLength":23376,"uri":"data:application/octet-stream;base64,"}],"bufferViews":[{"buffer":0,"byteOffset":0,"byteLength":14292,"target":34962},{"buffer":0,"byteOffset":14292,"byteLength":4764,"target":34962},{"buffer":0,"byteOffset":19056,"byteLength":4320,"target":34963}],"accessors":[{"bufferView":0,"componentType":5126,"count":1191,"type":"VEC3","min":[-0.5371475219726562,-0.005699265282601118,-0.2581174373626709],"max":[0.5371475219726562,1.3616340160369873,0.26861274242401123]},{"bufferView":1,"componentType":5121,"normalized":true,"count":1191,"type":"VEC4"},{"bufferView":2,"componentType":5123,"count":2160,"type":"SCALAR"}]}