{"asset":{"version":"2.0","generator":"wam scripts/export_items.py (grape)"},"scene":0,"scenes":[{"nodes":[0]}],"nodes":[{"name":"grape","mesh":0}],"meshes":[{"primitives":[{"attributes":{"POSITION":0,"COLOR_0":1},"indices":2,"material":0}]}],"materials":[{"name":"grape","pbrMetallicRoughness":{"baseColorFactor":[1,1,1,1],"metallicFactor":0,"roughnessFactor":0.85}}],"buffers":[{"byteLength":33728,"uri":"data:application/octet-stream;base64,"}],"bufferViews":[{"buffer":0,"byteOffset":0,"byteLength":21696,"target":34962},{"buffer":0,"byteOffset":21696,"byteLength":7232,"target":34962},{"buffer":0,"byteOffset":28928,"byteLength":4800,"target":34963}],"accessors":[{"bufferView":0,"componentType":5126,"count":1808,"type":"VEC3","min":[-0.06404999643564224,-0.0008924999856390059,-0.06429877132177353],"max":[0.09949350357055664,0.26008254289627075,0.06429877132177353]},{"bufferView":1,"componentType":5121,"normalized":true,"count":1808,"type":"VEC4"},{"bufferView":2,"componentType":5123,"count":2400,"type":"SCALAR"}]}