{"asset":{"version":"2.0","generator":"wam scripts/export_items.py (grape_0)"},"scene":0,"scenes":[{"nodes":[0]}],"nodes":[{"name":"grape_0","mesh":0}],"meshes":[{"primitives":[{"attributes":{"POSITION":0,"COLOR_0":1},"indices":2,"material":0}]}],"materials":[{"name":"grape_0","pbrMetallicRoughness":{"baseColorFactor":[1,1,1,1],"metallicFactor":0,"roughnessFactor":0.85}}],"buffers":[{"byteLength":2952,"uri":"data:application/octet-stream;base64,"}],"bufferViews":[{"buffer":0,"byteOffset":0,"byteLength":1656,"target":34962},{"buffer":0,"byteOffset":1656,"byteLength":552,"target":34962},{"buffer":0,"byteOffset":2208,"byteLength":744,"target":34963}],"accessors":[{"bufferView":0,"componentType":5126,"count":138,"type":"VEC3","min":[-0.145685613155365,-0.0028682053089141846,-0.06876098364591599],"max":[0.145685613155365,0.24335318803787231,0.0397162064909935]},{"bufferView":1,"componentType":5121,"normalized":true,"count":138,"type":"VEC4"},{"bufferView":2,"componentType":5123,"count":372,"type":"SCALAR"}]}