{"asset":{"version":"2.0","generator":"wam scripts/export_items.py (grape_3)"},"scene":0,"scenes":[{"nodes":[0]}],"nodes":[{"name":"grape_3","mesh":0}],"meshes":[{"primitives":[{"attributes":{"POSITION":0,"COLOR_0":1},"indices":2,"material":0}]}],"materials":[{"name":"grape_3","pbrMetallicRoughness":{"baseColorFactor":[1,1,1,1],"metallicFactor":0,"roughnessFactor":0.85}}],"buffers":[{"byteLength":65368,"uri":"data:application/octet-stream;base64,"}],"bufferViews":[{"buffer":0,"byteOffset":0,"byteLength":41808,"target":34962},{"buffer":0,"byteOffset":41808,"byteLength":13936,"target":34962},{"buffer":0,"byteOffset":55744,"byteLength":9624,"target":34963}],"accessors":[{"bufferView":0,"componentType":5126,"count":3484,"type":"VEC3","min":[-0.6227880716323853,-0.006543600931763649,-0.2866015136241913],"max":[0.6227880716323853,1.6542664766311646,0.3032417297363281]},{"bufferView":1,"componentType":5121,"normalized":true,"count":3484,"type":"VEC4"},{"bufferView":2,"componentType":5123,"count":4812,"type":"SCALAR"}]}