{"asset":{"version":"2.0","generator":"wam scripts/export_items.py (greenbean)"},"scene":0,"scenes":[{"nodes":[0]}],"nodes":[{"name":"greenbean","mesh":0}],"meshes":[{"primitives":[{"attributes":{"POSITION":0,"COLOR_0":1},"indices":2,"material":0}]}],"materials":[{"name":"greenbean","pbrMetallicRoughness":{"baseColorFactor":[1,1,1,1],"metallicFactor":0,"roughnessFactor":0.85}}],"buffers":[{"byteLength":18616,"uri":"data:application/octet-stream;base64,"}],"bufferViews":[{"buffer":0,"byteOffset":0,"byteLength":11856,"target":34962},{"buffer":0,"byteOffset":11856,"byteLength":3952,"target":34962},{"buffer":0,"byteOffset":15808,"byteLength":2808,"target":34963}],"accessors":[{"bufferView":0,"componentType":5126,"count":988,"type":"VEC3","min":[-0.0744633749127388,-0.00016565776604693383,-0.06730356067419052],"max":[0.0742337554693222,0.20259776711463928,0.02519761025905609]},{"bufferView":1,"componentType":5121,"normalized":true,"count":988,"type":"VEC4"},{"bufferView":2,"componentType":5123,"count":1404,"type":"SCALAR"}]}