{"asset":{"version":"2.0","generator":"wam scripts/export_items.py (greenbean_3)"},"scene":0,"scenes":[{"nodes":[0]}],"nodes":[{"name":"greenbean_3","mesh":0}],"meshes":[{"primitives":[{"attributes":{"POSITION":0,"COLOR_0":1},"indices":2,"material":0}]}],"materials":[{"name":"greenbean_3","pbrMetallicRoughness":{"baseColorFactor":[1,1,1,1],"metallicFactor":0,"roughnessFactor":0.85}}],"buffers":[{"byteLength":71368,"uri":"data:application/octet-stream;base64,"}],"bufferViews":[{"buffer":0,"byteOffset":0,"byteLength":45696,"target":34962},{"buffer":0,"byteOffset":45696,"byteLength":15232,"target":34962},{"buffer":0,"byteOffset":60928,"byteLength":10440,"target":34963}],"accessors":[{"bufferView":0,"componentType":5126,"count":3808,"type":"VEC3","min":[-0.5599310994148254,-0.01587020233273506,-0.24371449649333954],"max":[0.5599310994148254,1.5178673267364502,0.281020849943161]},{"bufferView":1,"componentType":5121,"normalized":true,"count":3808,"type":"VEC4"},{"bufferView":2,"componentType":5123,"count":5220,"type":"SCALAR"}]}