{"asset":{"version":"2.0","generator":"wam scripts/export_items.py (greenbean_1)"},"scene":0,"scenes":[{"nodes":[0]}],"nodes":[{"name":"greenbean_1","mesh":0}],"meshes":[{"primitives":[{"attributes":{"POSITION":0,"COLOR_0":1},"indices":2,"material":0}]}],"materials":[{"name":"greenbean_1","pbrMetallicRoughness":{"baseColorFactor":[1,1,1,1],"metallicFactor":0,"roughnessFactor":0.85}}],"buffers":[{"byteLength":21048,"uri":"data:application/octet-stream;base64,"}],"bufferViews":[{"buffer":0,"byteOffset":0,"byteLength":12816,"target":34962},{"buffer":0,"byteOffset":12816,"byteLength":4272,"target":34962},{"buffer":0,"byteOffset":17088,"byteLength":3960,"target":34963}],"accessors":[{"bufferView":0,"componentType":5126,"count":1068,"type":"VEC3","min":[-0.5294603109359741,-0.01587020233273506,-0.24371449649333954],"max":[0.5294603109359741,0.8043450713157654,0.281020849943161]},{"bufferView":1,"componentType":5121,"normalized":true,"count":1068,"type":"VEC4"},{"bufferView":2,"componentType":5123,"count":1980,"type":"SCALAR"}]}