{"asset":{"version":"2.0","generator":"wam scripts/export_items.py (greenbean_0)"},"scene":0,"scenes":[{"nodes":[0]}],"nodes":[{"name":"greenbean_0","mesh":0}],"meshes":[{"primitives":[{"attributes":{"POSITION":0,"COLOR_0":1},"indices":2,"material":0}]}],"materials":[{"name":"greenbean_0","pbrMetallicRoughness":{"baseColorFactor":[1,1,1,1],"metallicFactor":0,"roughnessFactor":0.85}}],"buffers":[{"byteLength":2612,"uri":"data:application/octet-stream;base64,"}],"bufferViews":[{"buffer":0,"byteOffset":0,"byteLength":1464,"target":34962},{"buffer":0,"byteOffset":1464,"byteLength":488,"target":34962},{"buffer":0,"byteOffset":1952,"byteLength":660,"target":34963}],"accessors":[{"bufferView":0,"componentType":5126,"count":122,"type":"VEC3","min":[-0.19762073457241058,0.0,-0.046599380671978],"max":[0.19762073457241058,0.15193407237529755,0.0575999990105629]},{"bufferView":1,"componentType":5121,"normalized":true,"count":122,"type":"VEC4"},{"bufferView":2,"componentType":5123,"count":330,"type":"SCALAR"}]}