{"asset":{"version":"2.0","generator":"wam scripts/export_items.py (greenbean_2)"},"scene":0,"scenes":[{"nodes":[0]}],"nodes":[{"name":"greenbean_2","mesh":0}],"meshes":[{"primitives":[{"attributes":{"POSITION":0,"COLOR_0":1},"indices":2,"material":0}]}],"materials":[{"name":"greenbean_2","pbrMetallicRoughness":{"baseColorFactor":[1,1,1,1],"metallicFactor":0,"roughnessFactor":0.85}}],"buffers":[{"byteLength":61224,"uri":"data:application/octet-stream;base64,"}],"bufferViews":[{"buffer":0,"byteOffset":0,"byteLength":39168,"target":34962},{"buffer":0,"byteOffset":39168,"byteLength":13056,"target":34962},{"buffer":0,"byteOffset":52224,"byteLength":9000,"target":34963}],"accessors":[{"bufferView":0,"componentType":5126,"count":3264,"type":"VEC3","min":[-0.5161293148994446,-0.01587020233273506,-0.24371449649333954],"max":[0.5161293148994446,1.215313196182251,0.281020849943161]},{"bufferView":1,"componentType":5121,"normalized":true,"count":3264,"type":"VEC4"},{"bufferView":2,"componentType":5123,"count":4500,"type":"SCALAR"}]}