{"asset":{"version":"2.0","generator":"wam scripts/export_items.py (hide)"},"scene":0,"scenes":[{"nodes":[0]}],"nodes":[{"name":"hide","mesh":0}],"meshes":[{"primitives":[{"attributes":{"POSITION":0,"COLOR_0":1},"indices":2,"material":0}]}],"materials":[{"name":"hide","pbrMetallicRoughness":{"baseColorFactor":[1,1,1,1],"metallicFactor":0,"roughnessFactor":0.85}}],"buffers":[{"byteLength":6576,"uri":"data:application/octet-stream;base64,"}],"bufferViews":[{"buffer":0,"byteOffset":0,"byteLength":4032,"target":34962},{"buffer":0,"byteOffset":4032,"byteLength":1344,"target":34962},{"buffer":0,"byteOffset":5376,"byteLength":1200,"target":34963}],"accessors":[{"bufferView":0,"componentType":5126,"count":336,"type":"VEC3","min":[-0.05575612932443619,0.0,-0.004650832153856754],"max":[0.05575612932443619,0.2515999972820282,0.12764443457126617]},{"bufferView":1,"componentType":5121,"normalized":true,"count":336,"type":"VEC4"},{"bufferView":2,"componentType":5123,"count":600,"type":"SCALAR"}]}