{"asset":{"version":"2.0","generator":"wam scripts/export_items.py (honeycomb)"},"scene":0,"scenes":[{"nodes":[0]}],"nodes":[{"name":"honeycomb","mesh":0}],"meshes":[{"primitives":[{"attributes":{"POSITION":0,"COLOR_0":1},"indices":2,"material":0}]}],"materials":[{"name":"honeycomb","pbrMetallicRoughness":{"baseColorFactor":[1,1,1,1],"metallicFactor":0,"roughnessFactor":0.85}}],"buffers":[{"byteLength":11172,"uri":"data:application/octet-stream;base64,"}],"bufferViews":[{"buffer":0,"byteOffset":0,"byteLength":6948,"target":34962},{"buffer":0,"byteOffset":6948,"byteLength":2316,"target":34962},{"buffer":0,"byteOffset":9264,"byteLength":1908,"target":34963}],"accessors":[{"bufferView":0,"componentType":5126,"count":579,"type":"VEC3","min":[-0.09939999878406525,-0.0008291697595268488,-0.03804031014442444],"max":[0.1109616607427597,0.21912840008735657,0.05040000006556511]},{"bufferView":1,"componentType":5121,"normalized":true,"count":579,"type":"VEC4"},{"bufferView":2,"componentType":5123,"count":954,"type":"SCALAR"}]}