{"asset":{"version":"2.0","generator":"wam scripts/export_items.py (hops_1)"},"scene":0,"scenes":[{"nodes":[0]}],"nodes":[{"name":"hops_1","mesh":0}],"meshes":[{"primitives":[{"attributes":{"POSITION":0,"COLOR_0":1},"indices":2,"material":0}]}],"materials":[{"name":"hops_1","pbrMetallicRoughness":{"baseColorFactor":[1,1,1,1],"metallicFactor":0,"roughnessFactor":0.85}}],"buffers":[{"byteLength":13560,"uri":"data:application/octet-stream;base64,"}],"bufferViews":[{"buffer":0,"byteOffset":0,"byteLength":8280,"target":34962},{"buffer":0,"byteOffset":8280,"byteLength":2760,"target":34962},{"buffer":0,"byteOffset":11040,"byteLength":2520,"target":34963}],"accessors":[{"bufferView":0,"componentType":5126,"count":690,"type":"VEC3","min":[-0.29881197214126587,-0.004802760202437639,-0.143883615732193],"max":[0.29881197214126587,0.9368965029716492,0.32152020931243896]},{"bufferView":1,"componentType":5121,"normalized":true,"count":690,"type":"VEC4"},{"bufferView":2,"componentType":5123,"count":1260,"type":"SCALAR"}]}