{"asset":{"version":"2.0","generator":"wam scripts/export_items.py (hops)"},"scene":0,"scenes":[{"nodes":[0]}],"nodes":[{"name":"hops","mesh":0}],"meshes":[{"primitives":[{"attributes":{"POSITION":0,"COLOR_0":1},"indices":2,"material":0}]}],"materials":[{"name":"hops","pbrMetallicRoughness":{"baseColorFactor":[1,1,1,1],"metallicFactor":0,"roughnessFactor":0.85}}],"buffers":[{"byteLength":7668,"uri":"data:application/octet-stream;base64,"}],"bufferViews":[{"buffer":0,"byteOffset":0,"byteLength":4644,"target":34962},{"buffer":0,"byteOffset":4644,"byteLength":1548,"target":34962},{"buffer":0,"byteOffset":6192,"byteLength":1476,"target":34963}],"accessors":[{"bufferView":0,"componentType":5126,"count":387,"type":"VEC3","min":[-0.07286597788333893,-0.0007463514339178801,-0.049693744629621506],"max":[0.03897114470601082,0.22055599093437195,0.05068889260292053]},{"bufferView":1,"componentType":5121,"normalized":true,"count":387,"type":"VEC4"},{"bufferView":2,"componentType":5123,"count":738,"type":"SCALAR"}]}