{"asset":{"version":"2.0","generator":"wam scripts/export_items.py (hops_3)"},"scene":0,"scenes":[{"nodes":[0]}],"nodes":[{"name":"hops_3","mesh":0}],"meshes":[{"primitives":[{"attributes":{"POSITION":0,"COLOR_0":1},"indices":2,"material":0}]}],"materials":[{"name":"hops_3","pbrMetallicRoughness":{"baseColorFactor":[1,1,1,1],"metallicFactor":0,"roughnessFactor":0.85}}],"buffers":[{"byteLength":73624,"uri":"data:application/octet-stream;base64,"}],"bufferViews":[{"buffer":0,"byteOffset":0,"byteLength":47136,"target":34962},{"buffer":0,"byteOffset":47136,"byteLength":15712,"target":34962},{"buffer":0,"byteOffset":62848,"byteLength":10776,"target":34963}],"accessors":[{"bufferView":0,"componentType":5126,"count":3928,"type":"VEC3","min":[-0.3528546988964081,-0.005946274381130934,-0.22328780591487885],"max":[0.3528546988964081,1.9621018171310425,0.3649040460586548]},{"bufferView":1,"componentType":5121,"normalized":true,"count":3928,"type":"VEC4"},{"bufferView":2,"componentType":5123,"count":5388,"type":"SCALAR"}]}