{"asset":{"version":"2.0","generator":"wam scripts/export_items.py (hops_0)"},"scene":0,"scenes":[{"nodes":[0]}],"nodes":[{"name":"hops_0","mesh":0}],"meshes":[{"primitives":[{"attributes":{"POSITION":0,"COLOR_0":1},"indices":2,"material":0}]}],"materials":[{"name":"hops_0","pbrMetallicRoughness":{"baseColorFactor":[1,1,1,1],"metallicFactor":0,"roughnessFactor":0.85}}],"buffers":[{"byteLength":4784,"uri":"data:application/octet-stream;base64,"}],"bufferViews":[{"buffer":0,"byteOffset":0,"byteLength":2688,"target":34962},{"buffer":0,"byteOffset":2688,"byteLength":896,"target":34962},{"buffer":0,"byteOffset":3584,"byteLength":1200,"target":34963}],"accessors":[{"bufferView":0,"componentType":5126,"count":224,"type":"VEC3","min":[-0.21402336657047272,-0.010025528259575367,-0.0815584734082222],"max":[0.21402336657047272,0.20028358697891235,0.0592423640191555]},{"bufferView":1,"componentType":5121,"normalized":true,"count":224,"type":"VEC4"},{"bufferView":2,"componentType":5123,"count":600,"type":"SCALAR"}]}