{"asset":{"version":"2.0","generator":"wam scripts/export_items.py (hops_2)"},"scene":0,"scenes":[{"nodes":[0]}],"nodes":[{"name":"hops_2","mesh":0}],"meshes":[{"primitives":[{"attributes":{"POSITION":0,"COLOR_0":1},"indices":2,"material":0}]}],"materials":[{"name":"hops_2","pbrMetallicRoughness":{"baseColorFactor":[1,1,1,1],"metallicFactor":0,"roughnessFactor":0.85}}],"buffers":[{"byteLength":27720,"uri":"data:application/octet-stream;base64,"}],"bufferViews":[{"buffer":0,"byteOffset":0,"byteLength":16992,"target":34962},{"buffer":0,"byteOffset":16992,"byteLength":5664,"target":34962},{"buffer":0,"byteOffset":22656,"byteLength":5064,"target":34963}],"accessors":[{"bufferView":0,"componentType":5126,"count":1416,"type":"VEC3","min":[-0.35148248076438904,-0.005488868802785873,-0.22373013198375702],"max":[0.35148248076438904,1.4502670764923096,0.35875388979911804]},{"bufferView":1,"componentType":5121,"normalized":true,"count":1416,"type":"VEC4"},{"bufferView":2,"componentType":5123,"count":2532,"type":"SCALAR"}]}