{"asset":{"version":"2.0","generator":"wam scripts/export_items.py (icecapmoss)"},"scene":0,"scenes":[{"nodes":[0]}],"nodes":[{"name":"icecapmoss","mesh":0}],"meshes":[{"primitives":[{"attributes":{"POSITION":0,"COLOR_0":1},"indices":2,"material":0}]}],"materials":[{"name":"icecapmoss","pbrMetallicRoughness":{"baseColorFactor":[1,1,1,1],"metallicFactor":0,"roughnessFactor":0.85}}],"buffers":[{"byteLength":15456,"uri":"data:application/octet-stream;base64,"}],"bufferViews":[{"buffer":0,"byteOffset":0,"byteLength":9432,"target":34962},{"buffer":0,"byteOffset":9432,"byteLength":3144,"target":34962},{"buffer":0,"byteOffset":12576,"byteLength":2880,"target":34963}],"accessors":[{"bufferView":0,"componentType":5126,"count":786,"type":"VEC3","min":[-0.20286425948143005,0.0,-0.16188281774520874],"max":[0.20286425948143005,0.12723392248153687,0.17328014969825745]},{"bufferView":1,"componentType":5121,"normalized":true,"count":786,"type":"VEC4"},{"bufferView":2,"componentType":5123,"count":1440,"type":"SCALAR"}]}