{"asset":{"version":"2.0","generator":"wam scripts/export_items.py (kelp)"},"scene":0,"scenes":[{"nodes":[0]}],"nodes":[{"name":"kelp","mesh":0}],"meshes":[{"primitives":[{"attributes":{"POSITION":0,"COLOR_0":1},"indices":2,"material":0}]}],"materials":[{"name":"kelp","pbrMetallicRoughness":{"baseColorFactor":[1,1,1,1],"metallicFactor":0,"roughnessFactor":0.85}}],"buffers":[{"byteLength":8748,"uri":"data:application/octet-stream;base64,"}],"bufferViews":[{"buffer":0,"byteOffset":0,"byteLength":5616,"target":34962},{"buffer":0,"byteOffset":5616,"byteLength":1872,"target":34962},{"buffer":0,"byteOffset":7488,"byteLength":1260,"target":34963}],"accessors":[{"bufferView":0,"componentType":5126,"count":468,"type":"VEC3","min":[-0.3820503056049347,-0.004636185243725777,-0.3174144923686981],"max":[0.36924660205841064,1.2176446914672852,0.32751771807670593]},{"bufferView":1,"componentType":5121,"normalized":true,"count":468,"type":"VEC4"},{"bufferView":2,"componentType":5123,"count":630,"type":"SCALAR"}]}