{"asset":{"version":"2.0","generator":"wam scripts/export_items.py (kiln)"},"scene":0,"scenes":[{"nodes":[0]}],"nodes":[{"name":"kiln","mesh":0}],"meshes":[{"primitives":[{"attributes":{"POSITION":0,"COLOR_0":1},"indices":2,"material":0}]}],"materials":[{"name":"kiln","pbrMetallicRoughness":{"baseColorFactor":[1,1,1,1],"metallicFactor":0,"roughnessFactor":0.85}}],"buffers":[{"byteLength":15120,"uri":"data:application/octet-stream;base64,"}],"bufferViews":[{"buffer":0,"byteOffset":0,"byteLength":10332,"target":34962},{"buffer":0,"byteOffset":10332,"byteLength":3444,"target":34962},{"buffer":0,"byteOffset":13776,"byteLength":1344,"target":34963}],"accessors":[{"bufferView":0,"componentType":5126,"count":861,"type":"VEC3","min":[-0.4772374629974365,0.0,-0.4480188488960266],"max":[0.4772374629974365,1.0,0.5]},{"bufferView":1,"componentType":5121,"normalized":true,"count":861,"type":"VEC4"},{"bufferView":2,"componentType":5123,"count":672,"type":"SCALAR"}]}