{"asset":{"version":"2.0","generator":"wam scripts/export_items.py (lavender)"},"scene":0,"scenes":[{"nodes":[0]}],"nodes":[{"name":"lavender","mesh":0}],"meshes":[{"primitives":[{"attributes":{"POSITION":0,"COLOR_0":1},"indices":2,"material":0}]}],"materials":[{"name":"lavender","pbrMetallicRoughness":{"baseColorFactor":[1,1,1,1],"metallicFactor":0,"roughnessFactor":0.85}}],"buffers":[{"byteLength":29624,"uri":"data:application/octet-stream;base64,"}],"bufferViews":[{"buffer":0,"byteOffset":0,"byteLength":19500,"target":34962},{"buffer":0,"byteOffset":19500,"byteLength":6500,"target":34962},{"buffer":0,"byteOffset":26000,"byteLength":3624,"target":34963}],"accessors":[{"bufferView":0,"componentType":5126,"count":1625,"type":"VEC3","min":[-0.19060994684696198,-0.00459972582757473,-0.10320302844047546],"max":[0.18233878910541534,0.5429760813713074,0.1778033822774887]},{"bufferView":1,"componentType":5121,"normalized":true,"count":1625,"type":"VEC4"},{"bufferView":2,"componentType":5123,"count":1812,"type":"SCALAR"}]}