{"asset":{"version":"2.0","generator":"wam scripts/export_items.py (lingonberry)"},"scene":0,"scenes":[{"nodes":[0]}],"nodes":[{"name":"lingonberry","mesh":0}],"meshes":[{"primitives":[{"attributes":{"POSITION":0,"COLOR_0":1},"indices":2,"material":0}]}],"materials":[{"name":"lingonberry","pbrMetallicRoughness":{"baseColorFactor":[1,1,1,1],"metallicFactor":0,"roughnessFactor":0.85}}],"buffers":[{"byteLength":37828,"uri":"data:application/octet-stream;base64,"}],"bufferViews":[{"buffer":0,"byteOffset":0,"byteLength":25320,"target":34962},{"buffer":0,"byteOffset":25320,"byteLength":8440,"target":34962},{"buffer":0,"byteOffset":33760,"byteLength":4068,"target":34963}],"accessors":[{"bufferView":0,"componentType":5126,"count":2110,"type":"VEC3","min":[-0.08973421901464462,-0.0009730905294418335,-0.10797745734453201],"max":[0.10052087157964706,0.12096124142408371,0.1279304325580597]},{"bufferView":1,"componentType":5121,"normalized":true,"count":2110,"type":"VEC4"},{"bufferView":2,"componentType":5123,"count":2034,"type":"SCALAR"}]}