{"asset":{"version":"2.0","generator":"wam scripts/export_items.py (lotus)"},"scene":0,"scenes":[{"nodes":[0]}],"nodes":[{"name":"lotus","mesh":0}],"meshes":[{"primitives":[{"attributes":{"POSITION":0,"COLOR_0":1},"indices":2,"material":0}]}],"materials":[{"name":"lotus","pbrMetallicRoughness":{"baseColorFactor":[1,1,1,1],"metallicFactor":0,"roughnessFactor":0.85}}],"buffers":[{"byteLength":24552,"uri":"data:application/octet-stream;base64,"}],"bufferViews":[{"buffer":0,"byteOffset":0,"byteLength":14904,"target":34962},{"buffer":0,"byteOffset":14904,"byteLength":4968,"target":34962},{"buffer":0,"byteOffset":19872,"byteLength":4680,"target":34963}],"accessors":[{"bufferView":0,"componentType":5126,"count":1242,"type":"VEC3","min":[-0.6402339339256287,0.0,-0.4442339241504669],"max":[0.6402339339256287,0.7860264182090759,0.675637423992157]},{"bufferView":1,"componentType":5121,"normalized":true,"count":1242,"type":"VEC4"},{"bufferView":2,"componentType":5123,"count":2340,"type":"SCALAR"}]}