{"asset":{"version":"2.0","generator":"wam scripts/export_items.py (marram)"},"scene":0,"scenes":[{"nodes":[0]}],"nodes":[{"name":"marram","mesh":0}],"meshes":[{"primitives":[{"attributes":{"POSITION":0,"COLOR_0":1},"indices":2,"material":0}]}],"materials":[{"name":"marram","pbrMetallicRoughness":{"baseColorFactor":[1,1,1,1],"metallicFactor":0,"roughnessFactor":0.85}}],"buffers":[{"byteLength":10496,"uri":"data:application/octet-stream;base64,"}],"bufferViews":[{"buffer":0,"byteOffset":0,"byteLength":6720,"target":34962},{"buffer":0,"byteOffset":6720,"byteLength":2240,"target":34962},{"buffer":0,"byteOffset":8960,"byteLength":1536,"target":34963}],"accessors":[{"bufferView":0,"componentType":5126,"count":560,"type":"VEC3","min":[-0.233677476644516,-0.004671091679483652,-0.2487901747226715],"max":[0.23872101306915283,0.7387496829032898,0.24984034895896912]},{"bufferView":1,"componentType":5121,"normalized":true,"count":560,"type":"VEC4"},{"bufferView":2,"componentType":5123,"count":768,"type":"SCALAR"}]}