{"asset":{"version":"2.0","generator":"wam scripts/export_items.py (meat)"},"scene":0,"scenes":[{"nodes":[0]}],"nodes":[{"name":"meat","mesh":0}],"meshes":[{"primitives":[{"attributes":{"POSITION":0,"COLOR_0":1},"indices":2,"material":0}]}],"materials":[{"name":"meat","pbrMetallicRoughness":{"baseColorFactor":[1,1,1,1],"metallicFactor":0,"roughnessFactor":0.85}}],"buffers":[{"byteLength":4512,"uri":"data:application/octet-stream;base64,"}],"bufferViews":[{"buffer":0,"byteOffset":0,"byteLength":2736,"target":34962},{"buffer":0,"byteOffset":2736,"byteLength":912,"target":34962},{"buffer":0,"byteOffset":3648,"byteLength":864,"target":34963}],"accessors":[{"bufferView":0,"componentType":5126,"count":228,"type":"VEC3","min":[-0.06757266819477081,0.00038543198024854064,-0.07153958827257156],"max":[0.07500000298023224,0.30848127603530884,0.05957484617829323]},{"bufferView":1,"componentType":5121,"normalized":true,"count":228,"type":"VEC4"},{"bufferView":2,"componentType":5123,"count":432,"type":"SCALAR"}]}