{"asset":{"version":"2.0","generator":"wam scripts/export_items.py (mireroot)"},"scene":0,"scenes":[{"nodes":[0]}],"nodes":[{"name":"mireroot","mesh":0}],"meshes":[{"primitives":[{"attributes":{"POSITION":0,"COLOR_0":1},"indices":2,"material":0}]}],"materials":[{"name":"mireroot","pbrMetallicRoughness":{"baseColorFactor":[1,1,1,1],"metallicFactor":0,"roughnessFactor":0.85}}],"buffers":[{"byteLength":26024,"uri":"data:application/octet-stream;base64,"}],"bufferViews":[{"buffer":0,"byteOffset":0,"byteLength":16656,"target":34962},{"buffer":0,"byteOffset":16656,"byteLength":5552,"target":34962},{"buffer":0,"byteOffset":22208,"byteLength":3816,"target":34963}],"accessors":[{"bufferView":0,"componentType":5126,"count":1388,"type":"VEC3","min":[-0.3751157820224762,0.0,-0.3491270840167999],"max":[0.3751157820224762,0.8267516493797302,0.12472373992204666]},{"bufferView":1,"componentType":5121,"normalized":true,"count":1388,"type":"VEC4"},{"bufferView":2,"componentType":5123,"count":1908,"type":"SCALAR"}]}