{"asset":{"version":"2.0","generator":"wam scripts/export_items.py (mushroom)"},"scene":0,"scenes":[{"nodes":[0]}],"nodes":[{"name":"mushroom","mesh":0}],"meshes":[{"primitives":[{"attributes":{"POSITION":0,"COLOR_0":1},"indices":2,"material":0}]}],"materials":[{"name":"mushroom","pbrMetallicRoughness":{"baseColorFactor":[1,1,1,1],"metallicFactor":0,"roughnessFactor":0.85}}],"buffers":[{"byteLength":17728,"uri":"data:application/octet-stream;base64,"}],"bufferViews":[{"buffer":0,"byteOffset":0,"byteLength":11280,"target":34962},{"buffer":0,"byteOffset":11280,"byteLength":3760,"target":34962},{"buffer":0,"byteOffset":15040,"byteLength":2688,"target":34963}],"accessors":[{"bufferView":0,"componentType":5126,"count":940,"type":"VEC3","min":[-0.15939432382583618,-0.0021981101017445326,-0.1712263971567154],"max":[0.15939432382583618,0.4279855787754059,0.1395736038684845]},{"bufferView":1,"componentType":5121,"normalized":true,"count":940,"type":"VEC4"},{"bufferView":2,"componentType":5123,"count":1344,"type":"SCALAR"}]}