{"asset":{"version":"2.0","generator":"wam scripts/export_items.py (olive_tree)"},"scene":0,"scenes":[{"nodes":[0]}],"nodes":[{"name":"olive_tree","mesh":0}],"meshes":[{"primitives":[{"attributes":{"POSITION":0,"COLOR_0":1},"indices":2,"material":0}]}],"materials":[{"name":"olive_tree","pbrMetallicRoughness":{"baseColorFactor":[1,1,1,1],"metallicFactor":0,"roughnessFactor":0.85}}],"buffers":[{"byteLength":67520,"uri":"data:application/octet-stream;base64,"}],"bufferViews":[{"buffer":0,"byteOffset":0,"byteLength":43296,"target":34962},{"buffer":0,"byteOffset":43296,"byteLength":14432,"target":34962},{"buffer":0,"byteOffset":57728,"byteLength":9792,"target":34963}],"accessors":[{"bufferView":0,"componentType":5126,"count":3608,"type":"VEC3","min":[-1.4967221021652222,0.021741747856140137,-0.8262947797775269],"max":[1.4967221021652222,2.696354389190674,1.1838781833648682]},{"bufferView":1,"componentType":5121,"normalized":true,"count":3608,"type":"VEC4"},{"bufferView":2,"componentType":5123,"count":4896,"type":"SCALAR"}]}