{"asset":{"version":"2.0","generator":"wam scripts/export_items.py (pearl)"},"scene":0,"scenes":[{"nodes":[0]}],"nodes":[{"name":"pearl","mesh":0}],"meshes":[{"primitives":[{"attributes":{"POSITION":0,"COLOR_0":1},"indices":2,"material":0}]}],"materials":[{"name":"pearl","pbrMetallicRoughness":{"baseColorFactor":[1,1,1,1],"metallicFactor":0,"roughnessFactor":0.85}}],"buffers":[{"byteLength":8336,"uri":"data:application/octet-stream;base64,"}],"bufferViews":[{"buffer":0,"byteOffset":0,"byteLength":5280,"target":34962},{"buffer":0,"byteOffset":5280,"byteLength":1760,"target":34962},{"buffer":0,"byteOffset":7040,"byteLength":1296,"target":34963}],"accessors":[{"bufferView":0,"componentType":5126,"count":440,"type":"VEC3","min":[-0.05901806801557541,-0.0006500000017695129,-0.05901806801557541],"max":[0.05901806801557541,0.1358499974012375,0.05901806801557541]},{"bufferView":1,"componentType":5121,"normalized":true,"count":440,"type":"VEC4"},{"bufferView":2,"componentType":5123,"count":648,"type":"SCALAR"}]}