{"asset":{"version":"2.0","generator":"wam scripts/export_items.py (plum_tree)"},"scene":0,"scenes":[{"nodes":[0]}],"nodes":[{"name":"plum_tree","mesh":0}],"meshes":[{"primitives":[{"attributes":{"POSITION":0,"COLOR_0":1},"indices":2,"material":0}]}],"materials":[{"name":"plum_tree","pbrMetallicRoughness":{"baseColorFactor":[1,1,1,1],"metallicFactor":0,"roughnessFactor":0.85}}],"buffers":[{"byteLength":73568,"uri":"data:application/octet-stream;base64,"}],"bufferViews":[{"buffer":0,"byteOffset":0,"byteLength":47040,"target":34962},{"buffer":0,"byteOffset":47040,"byteLength":15680,"target":34962},{"buffer":0,"byteOffset":62720,"byteLength":10848,"target":34963}],"accessors":[{"bufferView":0,"componentType":5126,"count":3920,"type":"VEC3","min":[-1.9713537693023682,0.0,-1.8030734062194824],"max":[1.9713537693023682,3.3306000232696533,1.5395879745483398]},{"bufferView":1,"componentType":5121,"normalized":true,"count":3920,"type":"VEC4"},{"bufferView":2,"componentType":5123,"count":5424,"type":"SCALAR"}]}