{"asset":{"version":"2.0","generator":"wam scripts/export_items.py (poultry)"},"scene":0,"scenes":[{"nodes":[0]}],"nodes":[{"name":"poultry","mesh":0}],"meshes":[{"primitives":[{"attributes":{"POSITION":0,"COLOR_0":1},"indices":2,"material":0}]}],"materials":[{"name":"poultry","pbrMetallicRoughness":{"baseColorFactor":[1,1,1,1],"metallicFactor":0,"roughnessFactor":0.85}}],"buffers":[{"byteLength":9376,"uri":"data:application/octet-stream;base64,"}],"bufferViews":[{"buffer":0,"byteOffset":0,"byteLength":5952,"target":34962},{"buffer":0,"byteOffset":5952,"byteLength":1984,"target":34962},{"buffer":0,"byteOffset":7936,"byteLength":1440,"target":34963}],"accessors":[{"bufferView":0,"componentType":5126,"count":496,"type":"VEC3","min":[-0.06513350456953049,-0.0011145684402436018,-0.06764674931764603],"max":[0.06513350456953049,0.3203478753566742,0.05568201094865799]},{"bufferView":1,"componentType":5121,"normalized":true,"count":496,"type":"VEC4"},{"bufferView":2,"componentType":5123,"count":720,"type":"SCALAR"}]}