{"asset":{"version":"2.0","generator":"wam scripts/export_items.py (raw_copper)"},"scene":0,"scenes":[{"nodes":[0]}],"nodes":[{"name":"raw_copper","mesh":0}],"meshes":[{"primitives":[{"attributes":{"POSITION":0,"COLOR_0":1},"indices":2,"material":0}]}],"materials":[{"name":"raw_copper","pbrMetallicRoughness":{"baseColorFactor":[1,1,1,1],"metallicFactor":0,"roughnessFactor":0.85}}],"buffers":[{"byteLength":2548,"uri":"data:application/octet-stream;base64,"}],"bufferViews":[{"buffer":0,"byteOffset":0,"byteLength":1416,"target":34962},{"buffer":0,"byteOffset":1416,"byteLength":472,"target":34962},{"buffer":0,"byteOffset":1888,"byteLength":660,"target":34963}],"accessors":[{"bufferView":0,"componentType":5126,"count":118,"type":"VEC3","min":[-0.15918029844760895,-0.005044329911470413,-0.0883430615067482],"max":[0.09984967112541199,0.17556896805763245,0.08195775002241135]},{"bufferView":1,"componentType":5121,"normalized":true,"count":118,"type":"VEC4"},{"bufferView":2,"componentType":5123,"count":330,"type":"SCALAR"}]}