{"asset":{"version":"2.0","generator":"wam scripts/export_items.py (ruby)"},"scene":0,"scenes":[{"nodes":[0]}],"nodes":[{"name":"ruby","mesh":0}],"meshes":[{"primitives":[{"attributes":{"POSITION":0,"COLOR_0":1},"indices":2,"material":0}]}],"materials":[{"name":"ruby","pbrMetallicRoughness":{"baseColorFactor":[1,1,1,1],"metallicFactor":0,"roughnessFactor":0.85}}],"buffers":[{"byteLength":2616,"uri":"data:application/octet-stream;base64,"}],"bufferViews":[{"buffer":0,"byteOffset":0,"byteLength":1584,"target":34962},{"buffer":0,"byteOffset":1584,"byteLength":528,"target":34962},{"buffer":0,"byteOffset":2112,"byteLength":504,"target":34963}],"accessors":[{"bufferView":0,"componentType":5126,"count":132,"type":"VEC3","min":[-0.07197222113609314,-0.00018233340233564377,-0.08166354149580002],"max":[0.06998638063669205,0.2025088667869568,0.06753353029489517]},{"bufferView":1,"componentType":5121,"normalized":true,"count":132,"type":"VEC4"},{"bufferView":2,"componentType":5123,"count":252,"type":"SCALAR"}]}