{"asset":{"version":"2.0","generator":"wam scripts/export_items.py (sapling)"},"scene":0,"scenes":[{"nodes":[0]}],"nodes":[{"name":"sapling","mesh":0}],"meshes":[{"primitives":[{"attributes":{"POSITION":0,"COLOR_0":1},"indices":2,"material":0}]}],"materials":[{"name":"sapling","pbrMetallicRoughness":{"baseColorFactor":[1,1,1,1],"metallicFactor":0,"roughnessFactor":0.85}}],"buffers":[{"byteLength":8744,"uri":"data:application/octet-stream;base64,"}],"bufferViews":[{"buffer":0,"byteOffset":0,"byteLength":5568,"target":34962},{"buffer":0,"byteOffset":5568,"byteLength":1856,"target":34962},{"buffer":0,"byteOffset":7424,"byteLength":1320,"target":34963}],"accessors":[{"bufferView":0,"componentType":5126,"count":464,"type":"VEC3","min":[-0.10416191071271896,-0.0010751282097771764,-0.08500677347183228],"max":[0.10416191071271896,0.4040260314941406,0.07801191508769989]},{"bufferView":1,"componentType":5121,"normalized":true,"count":464,"type":"VEC4"},{"bufferView":2,"componentType":5123,"count":660,"type":"SCALAR"}]}