{"asset":{"version":"2.0","generator":"wam scripts/export_items.py (sea_grape)"},"scene":0,"scenes":[{"nodes":[0]}],"nodes":[{"name":"sea_grape","mesh":0}],"meshes":[{"primitives":[{"attributes":{"POSITION":0,"COLOR_0":1},"indices":2,"material":0}]}],"materials":[{"name":"sea_grape","pbrMetallicRoughness":{"baseColorFactor":[1,1,1,1],"metallicFactor":0,"roughnessFactor":0.85}}],"buffers":[{"byteLength":27416,"uri":"data:application/octet-stream;base64,"}],"bufferViews":[{"buffer":0,"byteOffset":0,"byteLength":17376,"target":34962},{"buffer":0,"byteOffset":17376,"byteLength":5792,"target":34962},{"buffer":0,"byteOffset":23168,"byteLength":4248,"target":34963}],"accessors":[{"bufferView":0,"componentType":5126,"count":1448,"type":"VEC3","min":[-0.12369059771299362,0.004600000102072954,-0.16157500445842743],"max":[0.12280922383069992,0.4573087692260742,0.1799750030040741]},{"bufferView":1,"componentType":5121,"normalized":true,"count":1448,"type":"VEC4"},{"bufferView":2,"componentType":5123,"count":2124,"type":"SCALAR"}]}