{"asset":{"version":"2.0","generator":"wam scripts/export_items.py (sea_grass)"},"scene":0,"scenes":[{"nodes":[0]}],"nodes":[{"name":"sea_grass","mesh":0}],"meshes":[{"primitives":[{"attributes":{"POSITION":0,"COLOR_0":1},"indices":2,"material":0}]}],"materials":[{"name":"sea_grass","pbrMetallicRoughness":{"baseColorFactor":[1,1,1,1],"metallicFactor":0,"roughnessFactor":0.85}}],"buffers":[{"byteLength":4896,"uri":"data:application/octet-stream;base64,"}],"bufferViews":[{"buffer":0,"byteOffset":0,"byteLength":3024,"target":34962},{"buffer":0,"byteOffset":3024,"byteLength":1008,"target":34962},{"buffer":0,"byteOffset":4032,"byteLength":864,"target":34963}],"accessors":[{"bufferView":0,"componentType":5126,"count":252,"type":"VEC3","min":[-0.23917213082313538,-0.0018485956825315952,-0.18540270626544952],"max":[0.2343599945306778,0.36284464597702026,0.2168581634759903]},{"bufferView":1,"componentType":5121,"normalized":true,"count":252,"type":"VEC4"},{"bufferView":2,"componentType":5123,"count":432,"type":"SCALAR"}]}