{"asset":{"version":"2.0","generator":"wam scripts/export_items.py (sea_shell)"},"scene":0,"scenes":[{"nodes":[0]}],"nodes":[{"name":"sea_shell","mesh":0}],"meshes":[{"primitives":[{"attributes":{"POSITION":0,"COLOR_0":1},"indices":2,"material":0}]}],"materials":[{"name":"sea_shell","pbrMetallicRoughness":{"baseColorFactor":[1,1,1,1],"metallicFactor":0,"roughnessFactor":0.85}}],"buffers":[{"byteLength":16408,"uri":"data:application/octet-stream;base64,"}],"bufferViews":[{"buffer":0,"byteOffset":0,"byteLength":10740,"target":34962},{"buffer":0,"byteOffset":10740,"byteLength":3580,"target":34962},{"buffer":0,"byteOffset":14320,"byteLength":2088,"target":34963}],"accessors":[{"bufferView":0,"componentType":5126,"count":895,"type":"VEC3","min":[-0.190483957529068,0.0004660302074626088,-0.1390933245420456],"max":[0.190483957529068,0.3010633885860443,0.1390933245420456]},{"bufferView":1,"componentType":5121,"normalized":true,"count":895,"type":"VEC4"},{"bufferView":2,"componentType":5123,"count":1044,"type":"SCALAR"}]}