{"asset":{"version":"2.0","generator":"wam scripts/export_items.py (sea_lettuce)"},"scene":0,"scenes":[{"nodes":[0]}],"nodes":[{"name":"sea_lettuce","mesh":0}],"meshes":[{"primitives":[{"attributes":{"POSITION":0,"COLOR_0":1},"indices":2,"material":0}]}],"materials":[{"name":"sea_lettuce","pbrMetallicRoughness":{"baseColorFactor":[1,1,1,1],"metallicFactor":0,"roughnessFactor":0.85}}],"buffers":[{"byteLength":9304,"uri":"data:application/octet-stream;base64,"}],"bufferViews":[{"buffer":0,"byteOffset":0,"byteLength":5952,"target":34962},{"buffer":0,"byteOffset":5952,"byteLength":1984,"target":34962},{"buffer":0,"byteOffset":7936,"byteLength":1368,"target":34963}],"accessors":[{"bufferView":0,"componentType":5126,"count":496,"type":"VEC3","min":[-0.29790613055229187,-0.0015004834858700633,-0.24069827795028687],"max":[0.3716566264629364,0.4216119349002838,0.2868485748767853]},{"bufferView":1,"componentType":5121,"normalized":true,"count":496,"type":"VEC4"},{"bufferView":2,"componentType":5123,"count":684,"type":"SCALAR"}]}