{"asset":{"version":"2.0","generator":"wam scripts/export_items.py (sea_sponge)"},"scene":0,"scenes":[{"nodes":[0]}],"nodes":[{"name":"sea_sponge","mesh":0}],"meshes":[{"primitives":[{"attributes":{"POSITION":0,"COLOR_0":1},"indices":2,"material":0}]}],"materials":[{"name":"sea_sponge","pbrMetallicRoughness":{"baseColorFactor":[1,1,1,1],"metallicFactor":0,"roughnessFactor":0.85}}],"buffers":[{"byteLength":12392,"uri":"data:application/octet-stream;base64,"}],"bufferViews":[{"buffer":0,"byteOffset":0,"byteLength":7872,"target":34962},{"buffer":0,"byteOffset":7872,"byteLength":2624,"target":34962},{"buffer":0,"byteOffset":10496,"byteLength":1896,"target":34963}],"accessors":[{"bufferView":0,"componentType":5126,"count":656,"type":"VEC3","min":[-0.25047624111175537,-0.00432753749191761,-0.1849524974822998],"max":[0.2952336072921753,0.585906982421875,0.19262923300266266]},{"bufferView":1,"componentType":5121,"normalized":true,"count":656,"type":"VEC4"},{"bufferView":2,"componentType":5123,"count":948,"type":"SCALAR"}]}