{"asset":{"version":"2.0","generator":"wam scripts/export_items.py (seeds)"},"scene":0,"scenes":[{"nodes":[0]}],"nodes":[{"name":"seeds","mesh":0}],"meshes":[{"primitives":[{"attributes":{"POSITION":0,"COLOR_0":1},"indices":2,"material":0}]}],"materials":[{"name":"seeds","pbrMetallicRoughness":{"baseColorFactor":[1,1,1,1],"metallicFactor":0,"roughnessFactor":0.85}}],"buffers":[{"byteLength":6144,"uri":"data:application/octet-stream;base64,"}],"bufferViews":[{"buffer":0,"byteOffset":0,"byteLength":3744,"target":34962},{"buffer":0,"byteOffset":3744,"byteLength":1248,"target":34962},{"buffer":0,"byteOffset":4992,"byteLength":1152,"target":34963}],"accessors":[{"bufferView":0,"componentType":5126,"count":312,"type":"VEC3","min":[-0.04545264691114426,0.00030532493838109076,-0.035681191831827164],"max":[0.03832636773586273,0.0654391348361969,0.03592928871512413]},{"bufferView":1,"componentType":5121,"normalized":true,"count":312,"type":"VEC4"},{"bufferView":2,"componentType":5123,"count":576,"type":"SCALAR"}]}