{"asset":{"version":"2.0","generator":"wam scripts/export_items.py (shelf_fungus)"},"scene":0,"scenes":[{"nodes":[0]}],"nodes":[{"name":"shelf_fungus","mesh":0}],"meshes":[{"primitives":[{"attributes":{"POSITION":0,"COLOR_0":1},"indices":2,"material":0}]}],"materials":[{"name":"shelf_fungus","pbrMetallicRoughness":{"baseColorFactor":[1,1,1,1],"metallicFactor":0,"roughnessFactor":0.85}}],"buffers":[{"byteLength":29316,"uri":"data:application/octet-stream;base64,"}],"bufferViews":[{"buffer":0,"byteOffset":0,"byteLength":19656,"target":34962},{"buffer":0,"byteOffset":19656,"byteLength":6552,"target":34962},{"buffer":0,"byteOffset":26208,"byteLength":3108,"target":34963}],"accessors":[{"bufferView":0,"componentType":5126,"count":1638,"type":"VEC3","min":[-0.13920491933822632,-0.00261586788110435,-0.13973228633403778],"max":[0.15701809525489807,0.2194211483001709,0.13481339812278748]},{"bufferView":1,"componentType":5121,"normalized":true,"count":1638,"type":"VEC4"},{"bufferView":2,"componentType":5123,"count":1554,"type":"SCALAR"}]}