{"asset":{"version":"2.0","generator":"wam scripts/export_items.py (snowpea)"},"scene":0,"scenes":[{"nodes":[0]}],"nodes":[{"name":"snowpea","mesh":0}],"meshes":[{"primitives":[{"attributes":{"POSITION":0,"COLOR_0":1},"indices":2,"material":0}]}],"materials":[{"name":"snowpea","pbrMetallicRoughness":{"baseColorFactor":[1,1,1,1],"metallicFactor":0,"roughnessFactor":0.85}}],"buffers":[{"byteLength":13360,"uri":"data:application/octet-stream;base64,"}],"bufferViews":[{"buffer":0,"byteOffset":0,"byteLength":8544,"target":34962},{"buffer":0,"byteOffset":8544,"byteLength":2848,"target":34962},{"buffer":0,"byteOffset":11392,"byteLength":1968,"target":34963}],"accessors":[{"bufferView":0,"componentType":5126,"count":712,"type":"VEC3","min":[-0.06014809384942055,0.0035656129475682974,-0.05622291564941406],"max":[0.06418745219707489,0.20698091387748718,0.03281550481915474]},{"bufferView":1,"componentType":5121,"normalized":true,"count":712,"type":"VEC4"},{"bufferView":2,"componentType":5123,"count":984,"type":"SCALAR"}]}