{"asset":{"version":"2.0","generator":"wam scripts/export_items.py (snowbell)"},"scene":0,"scenes":[{"nodes":[0]}],"nodes":[{"name":"snowbell","mesh":0}],"meshes":[{"primitives":[{"attributes":{"POSITION":0,"COLOR_0":1},"indices":2,"material":0}]}],"materials":[{"name":"snowbell","pbrMetallicRoughness":{"baseColorFactor":[1,1,1,1],"metallicFactor":0,"roughnessFactor":0.85}}],"buffers":[{"byteLength":20636,"uri":"data:application/octet-stream;base64,"}],"bufferViews":[{"buffer":0,"byteOffset":0,"byteLength":13560,"target":34962},{"buffer":0,"byteOffset":13560,"byteLength":4520,"target":34962},{"buffer":0,"byteOffset":18080,"byteLength":2556,"target":34963}],"accessors":[{"bufferView":0,"componentType":5126,"count":1130,"type":"VEC3","min":[-0.11712341755628586,-0.003607690567150712,-0.0752406120300293],"max":[0.09994573146104813,0.2627500593662262,0.11917063593864441]},{"bufferView":1,"componentType":5121,"normalized":true,"count":1130,"type":"VEC4"},{"bufferView":2,"componentType":5123,"count":1278,"type":"SCALAR"}]}