{"asset":{"version":"2.0","generator":"wam scripts/export_items.py (snowpea_2)"},"scene":0,"scenes":[{"nodes":[0]}],"nodes":[{"name":"snowpea_2","mesh":0}],"meshes":[{"primitives":[{"attributes":{"POSITION":0,"COLOR_0":1},"indices":2,"material":0}]}],"materials":[{"name":"snowpea_2","pbrMetallicRoughness":{"baseColorFactor":[1,1,1,1],"metallicFactor":0,"roughnessFactor":0.85}}],"buffers":[{"byteLength":48296,"uri":"data:application/octet-stream;base64,"}],"bufferViews":[{"buffer":0,"byteOffset":0,"byteLength":30912,"target":34962},{"buffer":0,"byteOffset":30912,"byteLength":10304,"target":34962},{"buffer":0,"byteOffset":41216,"byteLength":7080,"target":34963}],"accessors":[{"bufferView":0,"componentType":5126,"count":2576,"type":"VEC3","min":[-0.2806248664855957,-0.004205537959933281,-0.10214390605688095],"max":[0.2806248664855957,1.0434174537658691,0.1482757180929184]},{"bufferView":1,"componentType":5121,"normalized":true,"count":2576,"type":"VEC4"},{"bufferView":2,"componentType":5123,"count":3540,"type":"SCALAR"}]}