{"asset":{"version":"2.0","generator":"wam scripts/export_items.py (snowpea_0)"},"scene":0,"scenes":[{"nodes":[0]}],"nodes":[{"name":"snowpea_0","mesh":0}],"meshes":[{"primitives":[{"attributes":{"POSITION":0,"COLOR_0":1},"indices":2,"material":0}]}],"materials":[{"name":"snowpea_0","pbrMetallicRoughness":{"baseColorFactor":[1,1,1,1],"metallicFactor":0,"roughnessFactor":0.85}}],"buffers":[{"byteLength":3732,"uri":"data:application/octet-stream;base64,"}],"bufferViews":[{"buffer":0,"byteOffset":0,"byteLength":2088,"target":34962},{"buffer":0,"byteOffset":2088,"byteLength":696,"target":34962},{"buffer":0,"byteOffset":2784,"byteLength":948,"target":34963}],"accessors":[{"bufferView":0,"componentType":5126,"count":174,"type":"VEC3","min":[-0.10929390043020248,-0.001774457050487399,-0.044459018856287],"max":[0.10929390043020248,0.1935354620218277,0.02530711330473423]},{"bufferView":1,"componentType":5121,"normalized":true,"count":174,"type":"VEC4"},{"bufferView":2,"componentType":5123,"count":474,"type":"SCALAR"}]}