{"asset":{"version":"2.0","generator":"wam scripts/export_items.py (snowpea_3)"},"scene":0,"scenes":[{"nodes":[0]}],"nodes":[{"name":"snowpea_3","mesh":0}],"meshes":[{"primitives":[{"attributes":{"POSITION":0,"COLOR_0":1},"indices":2,"material":0}]}],"materials":[{"name":"snowpea_3","pbrMetallicRoughness":{"baseColorFactor":[1,1,1,1],"metallicFactor":0,"roughnessFactor":0.85}}],"buffers":[{"byteLength":88512,"uri":"data:application/octet-stream;base64,"}],"bufferViews":[{"buffer":0,"byteOffset":0,"byteLength":58320,"target":34962},{"buffer":0,"byteOffset":58320,"byteLength":19440,"target":34962},{"buffer":0,"byteOffset":77760,"byteLength":10752,"target":34963}],"accessors":[{"bufferView":0,"componentType":5126,"count":4860,"type":"VEC3","min":[-0.3009282052516937,-0.004718231502920389,-0.10197287797927856],"max":[0.3009282052516937,1.2965706586837769,0.15707437694072723]},{"bufferView":1,"componentType":5121,"normalized":true,"count":4860,"type":"VEC4"},{"bufferView":2,"componentType":5123,"count":5376,"type":"SCALAR"}]}