{"asset":{"version":"2.0","generator":"wam scripts/export_items.py (snowpea_1)"},"scene":0,"scenes":[{"nodes":[0]}],"nodes":[{"name":"snowpea_1","mesh":0}],"meshes":[{"primitives":[{"attributes":{"POSITION":0,"COLOR_0":1},"indices":2,"material":0}]}],"materials":[{"name":"snowpea_1","pbrMetallicRoughness":{"baseColorFactor":[1,1,1,1],"metallicFactor":0,"roughnessFactor":0.85}}],"buffers":[{"byteLength":16656,"uri":"data:application/octet-stream;base64,"}],"bufferViews":[{"buffer":0,"byteOffset":0,"byteLength":10152,"target":34962},{"buffer":0,"byteOffset":10152,"byteLength":3384,"target":34962},{"buffer":0,"byteOffset":13536,"byteLength":3120,"target":34963}],"accessors":[{"bufferView":0,"componentType":5126,"count":846,"type":"VEC3","min":[-0.246504008769989,-0.0037144594825804234,-0.07010020315647125],"max":[0.246504008769989,0.7594297528266907,0.13205018639564514]},{"bufferView":1,"componentType":5121,"normalized":true,"count":846,"type":"VEC4"},{"bufferView":2,"componentType":5123,"count":1560,"type":"SCALAR"}]}