{"asset":{"version":"2.0","generator":"wam scripts/export_items.py (squash_3)"},"scene":0,"scenes":[{"nodes":[0]}],"nodes":[{"name":"squash_3","mesh":0}],"meshes":[{"primitives":[{"attributes":{"POSITION":0,"COLOR_0":1},"indices":2,"material":0}]}],"materials":[{"name":"squash_3","pbrMetallicRoughness":{"baseColorFactor":[1,1,1,1],"metallicFactor":0,"roughnessFactor":0.85}}],"buffers":[{"byteLength":36376,"uri":"data:application/octet-stream;base64,"}],"bufferViews":[{"buffer":0,"byteOffset":0,"byteLength":23232,"target":34962},{"buffer":0,"byteOffset":23232,"byteLength":7744,"target":34962},{"buffer":0,"byteOffset":30976,"byteLength":5400,"target":34963}],"accessors":[{"bufferView":0,"componentType":5126,"count":1936,"type":"VEC3","min":[-0.3450373709201813,0.01290616299957037,-0.40127748250961304],"max":[0.3450373709201813,0.25919055938720703,0.40345633029937744]},{"bufferView":1,"componentType":5121,"normalized":true,"count":1936,"type":"VEC4"},{"bufferView":2,"componentType":5123,"count":2700,"type":"SCALAR"}]}