{"asset":{"version":"2.0","generator":"wam scripts/export_items.py (squash)"},"scene":0,"scenes":[{"nodes":[0]}],"nodes":[{"name":"squash","mesh":0}],"meshes":[{"primitives":[{"attributes":{"POSITION":0,"COLOR_0":1},"indices":2,"material":0}]}],"materials":[{"name":"squash","pbrMetallicRoughness":{"baseColorFactor":[1,1,1,1],"metallicFactor":0,"roughnessFactor":0.85}}],"buffers":[{"byteLength":12372,"uri":"data:application/octet-stream;base64,"}],"bufferViews":[{"buffer":0,"byteOffset":0,"byteLength":7524,"target":34962},{"buffer":0,"byteOffset":7524,"byteLength":2508,"target":34962},{"buffer":0,"byteOffset":10032,"byteLength":2340,"target":34963}],"accessors":[{"bufferView":0,"componentType":5126,"count":627,"type":"VEC3","min":[-0.09764005243778229,0.00523311085999012,-0.10309120267629623],"max":[0.09764005243778229,0.2441912740468979,0.10309120267629623]},{"bufferView":1,"componentType":5121,"normalized":true,"count":627,"type":"VEC4"},{"bufferView":2,"componentType":5123,"count":1170,"type":"SCALAR"}]}