{"asset":{"version":"2.0","generator":"wam scripts/export_items.py (squash_0)"},"scene":0,"scenes":[{"nodes":[0]}],"nodes":[{"name":"squash_0","mesh":0}],"meshes":[{"primitives":[{"attributes":{"POSITION":0,"COLOR_0":1},"indices":2,"material":0}]}],"materials":[{"name":"squash_0","pbrMetallicRoughness":{"baseColorFactor":[1,1,1,1],"metallicFactor":0,"roughnessFactor":0.85}}],"buffers":[{"byteLength":2416,"uri":"data:application/octet-stream;base64,"}],"bufferViews":[{"buffer":0,"byteOffset":0,"byteLength":1344,"target":34962},{"buffer":0,"byteOffset":1344,"byteLength":448,"target":34962},{"buffer":0,"byteOffset":1792,"byteLength":624,"target":34963}],"accessors":[{"bufferView":0,"componentType":5126,"count":112,"type":"VEC3","min":[-0.09784351289272308,0.0,-0.041017159819602966],"max":[0.09784351289272308,0.06881354749202728,0.050700001418590546]},{"bufferView":1,"componentType":5121,"normalized":true,"count":112,"type":"VEC4"},{"bufferView":2,"componentType":5123,"count":312,"type":"SCALAR"}]}