{"asset":{"version":"2.0","generator":"wam scripts/export_items.py (squash_2)"},"scene":0,"scenes":[{"nodes":[0]}],"nodes":[{"name":"squash_2","mesh":0}],"meshes":[{"primitives":[{"attributes":{"POSITION":0,"COLOR_0":1},"indices":2,"material":0}]}],"materials":[{"name":"squash_2","pbrMetallicRoughness":{"baseColorFactor":[1,1,1,1],"metallicFactor":0,"roughnessFactor":0.85}}],"buffers":[{"byteLength":33862,"uri":"data:application/octet-stream;base64,"}],"bufferViews":[{"buffer":0,"byteOffset":0,"byteLength":21648,"target":34962},{"buffer":0,"byteOffset":21648,"byteLength":7216,"target":34962},{"buffer":0,"byteOffset":28864,"byteLength":4998,"target":34963}],"accessors":[{"bufferView":0,"componentType":5126,"count":1804,"type":"VEC3","min":[-0.28658780455589294,0.0047125001437962055,-0.33199194073677063],"max":[0.28658780455589294,0.2044615000486374,0.33398234844207764]},{"bufferView":1,"componentType":5121,"normalized":true,"count":1804,"type":"VEC4"},{"bufferView":2,"componentType":5123,"count":2499,"type":"SCALAR"}]}