{"asset":{"version":"2.0","generator":"wam scripts/export_items.py (squash_1)"},"scene":0,"scenes":[{"nodes":[0]}],"nodes":[{"name":"squash_1","mesh":0}],"meshes":[{"primitives":[{"attributes":{"POSITION":0,"COLOR_0":1},"indices":2,"material":0}]}],"materials":[{"name":"squash_1","pbrMetallicRoughness":{"baseColorFactor":[1,1,1,1],"metallicFactor":0,"roughnessFactor":0.85}}],"buffers":[{"byteLength":16080,"uri":"data:application/octet-stream;base64,"}],"bufferViews":[{"buffer":0,"byteOffset":0,"byteLength":9792,"target":34962},{"buffer":0,"byteOffset":9792,"byteLength":3264,"target":34962},{"buffer":0,"byteOffset":13056,"byteLength":3024,"target":34963}],"accessors":[{"bufferView":0,"componentType":5126,"count":816,"type":"VEC3","min":[-0.18017804622650146,-0.0017874999903142452,-0.18221572041511536],"max":[0.18017804622650146,0.14303472638130188,0.18011994659900665]},{"bufferView":1,"componentType":5121,"normalized":true,"count":816,"type":"VEC4"},{"bufferView":2,"componentType":5123,"count":1512,"type":"SCALAR"}]}