{"asset":{"version":"2.0","generator":"wam scripts/export_items.py (stick)"},"scene":0,"scenes":[{"nodes":[0]}],"nodes":[{"name":"stick","mesh":0}],"meshes":[{"primitives":[{"attributes":{"POSITION":0,"COLOR_0":1},"indices":2,"material":0}]}],"materials":[{"name":"stick","pbrMetallicRoughness":{"baseColorFactor":[1,1,1,1],"metallicFactor":0,"roughnessFactor":0.85}}],"buffers":[{"byteLength":2768,"uri":"data:application/octet-stream;base64,"}],"bufferViews":[{"buffer":0,"byteOffset":0,"byteLength":1536,"target":34962},{"buffer":0,"byteOffset":1536,"byteLength":512,"target":34962},{"buffer":0,"byteOffset":2048,"byteLength":720,"target":34963}],"accessors":[{"bufferView":0,"componentType":5126,"count":128,"type":"VEC3","min":[-0.024898231029510498,-0.002396782860159874,-0.042875807732343674],"max":[0.09842345863580704,0.44945430755615234,0.027395354583859444]},{"bufferView":1,"componentType":5121,"normalized":true,"count":128,"type":"VEC4"},{"bufferView":2,"componentType":5123,"count":360,"type":"SCALAR"}]}