{"asset":{"version":"2.0","generator":"wam scripts/export_items.py (stonecrop)"},"scene":0,"scenes":[{"nodes":[0]}],"nodes":[{"name":"stonecrop","mesh":0}],"meshes":[{"primitives":[{"attributes":{"POSITION":0,"COLOR_0":1},"indices":2,"material":0}]}],"materials":[{"name":"stonecrop","pbrMetallicRoughness":{"baseColorFactor":[1,1,1,1],"metallicFactor":0,"roughnessFactor":0.85}}],"buffers":[{"byteLength":46116,"uri":"data:application/octet-stream;base64,"}],"bufferViews":[{"buffer":0,"byteOffset":0,"byteLength":29520,"target":34962},{"buffer":0,"byteOffset":29520,"byteLength":9840,"target":34962},{"buffer":0,"byteOffset":39360,"byteLength":6756,"target":34963}],"accessors":[{"bufferView":0,"componentType":5126,"count":2460,"type":"VEC3","min":[-0.18612194061279297,0.0,-0.1251319795846939],"max":[0.18612194061279297,0.15437665581703186,0.1874512881040573]},{"bufferView":1,"componentType":5121,"normalized":true,"count":2460,"type":"VEC4"},{"bufferView":2,"componentType":5123,"count":3378,"type":"SCALAR"}]}