{"asset":{"version":"2.0","generator":"wam scripts/export_items.py (strawberry_1)"},"scene":0,"scenes":[{"nodes":[0]}],"nodes":[{"name":"strawberry_1","mesh":0}],"meshes":[{"primitives":[{"attributes":{"POSITION":0,"COLOR_0":1},"indices":2,"material":0}]}],"materials":[{"name":"strawberry_1","pbrMetallicRoughness":{"baseColorFactor":[1,1,1,1],"metallicFactor":0,"roughnessFactor":0.85}}],"buffers":[{"byteLength":12144,"uri":"data:application/octet-stream;base64,"}],"bufferViews":[{"buffer":0,"byteOffset":0,"byteLength":6768,"target":34962},{"buffer":0,"byteOffset":6768,"byteLength":2256,"target":34962},{"buffer":0,"byteOffset":9024,"byteLength":3120,"target":34963}],"accessors":[{"bufferView":0,"componentType":5126,"count":564,"type":"VEC3","min":[-0.1519455760717392,0.0015385887818410993,-0.14407475292682648],"max":[0.1519455760717392,0.10104948282241821,0.06255000084638596]},{"bufferView":1,"componentType":5121,"normalized":true,"count":564,"type":"VEC4"},{"bufferView":2,"componentType":5123,"count":1560,"type":"SCALAR"}]}