{"asset":{"version":"2.0","generator":"wam scripts/export_items.py (strawberry_3)"},"scene":0,"scenes":[{"nodes":[0]}],"nodes":[{"name":"strawberry_3","mesh":0}],"meshes":[{"primitives":[{"attributes":{"POSITION":0,"COLOR_0":1},"indices":2,"material":0}]}],"materials":[{"name":"strawberry_3","pbrMetallicRoughness":{"baseColorFactor":[1,1,1,1],"metallicFactor":0,"roughnessFactor":0.85}}],"buffers":[{"byteLength":33744,"uri":"data:application/octet-stream;base64,"}],"bufferViews":[{"buffer":0,"byteOffset":0,"byteLength":20592,"target":34962},{"buffer":0,"byteOffset":20592,"byteLength":6864,"target":34962},{"buffer":0,"byteOffset":27456,"byteLength":6288,"target":34963}],"accessors":[{"bufferView":0,"componentType":5126,"count":1716,"type":"VEC3","min":[-0.26759248971939087,-1.7004784240270965e-05,-0.19050027430057526],"max":[0.26759248971939087,0.13404949009418488,0.11472435295581818]},{"bufferView":1,"componentType":5121,"normalized":true,"count":1716,"type":"VEC4"},{"bufferView":2,"componentType":5123,"count":3144,"type":"SCALAR"}]}