{"asset":{"version":"2.0","generator":"wam scripts/export_items.py (strawberry_0)"},"scene":0,"scenes":[{"nodes":[0]}],"nodes":[{"name":"strawberry_0","mesh":0}],"meshes":[{"primitives":[{"attributes":{"POSITION":0,"COLOR_0":1},"indices":2,"material":0}]}],"materials":[{"name":"strawberry_0","pbrMetallicRoughness":{"baseColorFactor":[1,1,1,1],"metallicFactor":0,"roughnessFactor":0.85}}],"buffers":[{"byteLength":4656,"uri":"data:application/octet-stream;base64,"}],"bufferViews":[{"buffer":0,"byteOffset":0,"byteLength":2592,"target":34962},{"buffer":0,"byteOffset":2592,"byteLength":864,"target":34962},{"buffer":0,"byteOffset":3456,"byteLength":1200,"target":34963}],"accessors":[{"bufferView":0,"componentType":5126,"count":216,"type":"VEC3","min":[-0.11211061477661133,0.0023834379389882088,-0.046511054039001465],"max":[0.11211061477661133,0.10104948282241821,0.03884999826550484]},{"bufferView":1,"componentType":5121,"normalized":true,"count":216,"type":"VEC4"},{"bufferView":2,"componentType":5123,"count":600,"type":"SCALAR"}]}