{"asset":{"version":"2.0","generator":"wam scripts/export_items.py (sulfur)"},"scene":0,"scenes":[{"nodes":[0]}],"nodes":[{"name":"sulfur","mesh":0}],"meshes":[{"primitives":[{"attributes":{"POSITION":0,"COLOR_0":1},"indices":2,"material":0}]}],"materials":[{"name":"sulfur","pbrMetallicRoughness":{"baseColorFactor":[1,1,1,1],"metallicFactor":0,"roughnessFactor":0.85}}],"buffers":[{"byteLength":3192,"uri":"data:application/octet-stream;base64,"}],"bufferViews":[{"buffer":0,"byteOffset":0,"byteLength":1944,"target":34962},{"buffer":0,"byteOffset":1944,"byteLength":648,"target":34962},{"buffer":0,"byteOffset":2592,"byteLength":600,"target":34963}],"accessors":[{"bufferView":0,"componentType":5126,"count":162,"type":"VEC3","min":[-0.08746792376041412,-0.0014391932636499405,-0.07176382839679718],"max":[0.09430651366710663,0.15858325362205505,0.08138084411621094]},{"bufferView":1,"componentType":5121,"normalized":true,"count":162,"type":"VEC4"},{"bufferView":2,"componentType":5123,"count":300,"type":"SCALAR"}]}