{"asset":{"version":"2.0","generator":"wam scripts/export_items.py (swampreed)"},"scene":0,"scenes":[{"nodes":[0]}],"nodes":[{"name":"swampreed","mesh":0}],"meshes":[{"primitives":[{"attributes":{"POSITION":0,"COLOR_0":1},"indices":2,"material":0}]}],"materials":[{"name":"swampreed","pbrMetallicRoughness":{"baseColorFactor":[1,1,1,1],"metallicFactor":0,"roughnessFactor":0.85}}],"buffers":[{"byteLength":13924,"uri":"data:application/octet-stream;base64,"}],"bufferViews":[{"buffer":0,"byteOffset":0,"byteLength":8976,"target":34962},{"buffer":0,"byteOffset":8976,"byteLength":2992,"target":34962},{"buffer":0,"byteOffset":11968,"byteLength":1956,"target":34963}],"accessors":[{"bufferView":0,"componentType":5126,"count":748,"type":"VEC3","min":[-0.3822731077671051,-0.003505780827254057,-0.35366714000701904],"max":[0.4369920492172241,1.9972771406173706,0.3063543438911438]},{"bufferView":1,"componentType":5121,"normalized":true,"count":748,"type":"VEC4"},{"bufferView":2,"componentType":5123,"count":978,"type":"SCALAR"}]}