{"asset":{"version":"2.0","generator":"wam scripts/export_items.py (thornbrush)"},"scene":0,"scenes":[{"nodes":[0]}],"nodes":[{"name":"thornbrush","mesh":0}],"meshes":[{"primitives":[{"attributes":{"POSITION":0,"COLOR_0":1},"indices":2,"material":0}]}],"materials":[{"name":"thornbrush","pbrMetallicRoughness":{"baseColorFactor":[1,1,1,1],"metallicFactor":0,"roughnessFactor":0.85}}],"buffers":[{"byteLength":31264,"uri":"data:application/octet-stream;base64,"}],"bufferViews":[{"buffer":0,"byteOffset":0,"byteLength":20640,"target":34962},{"buffer":0,"byteOffset":20640,"byteLength":6880,"target":34962},{"buffer":0,"byteOffset":27520,"byteLength":3744,"target":34963}],"accessors":[{"bufferView":0,"componentType":5126,"count":1720,"type":"VEC3","min":[-0.24520377814769745,-0.0030093174427747726,-0.13982994854450226],"max":[0.17416870594024658,0.2883854806423187,0.20552033185958862]},{"bufferView":1,"componentType":5121,"normalized":true,"count":1720,"type":"VEC4"},{"bufferView":2,"componentType":5123,"count":1872,"type":"SCALAR"}]}