{"asset":{"version":"2.0","generator":"wam scripts/export_items.py (truffle)"},"scene":0,"scenes":[{"nodes":[0]}],"nodes":[{"name":"truffle","mesh":0}],"meshes":[{"primitives":[{"attributes":{"POSITION":0,"COLOR_0":1},"indices":2,"material":0}]}],"materials":[{"name":"truffle","pbrMetallicRoughness":{"baseColorFactor":[1,1,1,1],"metallicFactor":0,"roughnessFactor":0.85}}],"buffers":[{"byteLength":12048,"uri":"data:application/octet-stream;base64,"}],"bufferViews":[{"buffer":0,"byteOffset":0,"byteLength":7380,"target":34962},{"buffer":0,"byteOffset":7380,"byteLength":2460,"target":34962},{"buffer":0,"byteOffset":9840,"byteLength":2208,"target":34963}],"accessors":[{"bufferView":0,"componentType":5126,"count":615,"type":"VEC3","min":[-0.16430462896823883,-0.0005077316309325397,-0.12600000202655792],"max":[0.18245001137256622,0.08536985516548157,0.12600000202655792]},{"bufferView":1,"componentType":5121,"normalized":true,"count":615,"type":"VEC4"},{"bufferView":2,"componentType":5123,"count":1104,"type":"SCALAR"}]}