{"asset":{"version":"2.0","generator":"wam scripts/export_items.py (void_shard)"},"scene":0,"scenes":[{"nodes":[0]}],"nodes":[{"name":"void_shard","mesh":0}],"meshes":[{"primitives":[{"attributes":{"POSITION":0,"COLOR_0":1},"indices":2,"material":0}]}],"materials":[{"name":"void_shard","pbrMetallicRoughness":{"baseColorFactor":[1,1,1,1],"metallicFactor":0,"roughnessFactor":0.85}}],"buffers":[{"byteLength":2256,"uri":"data:application/octet-stream;base64,"}],"bufferViews":[{"buffer":0,"byteOffset":0,"byteLength":1368,"target":34962},{"buffer":0,"byteOffset":1368,"byteLength":456,"target":34962},{"buffer":0,"byteOffset":1824,"byteLength":432,"target":34963}],"accessors":[{"bufferView":0,"componentType":5126,"count":114,"type":"VEC3","min":[-0.062096018344163895,0.0002195985143771395,-0.028902830556035042],"max":[0.03918399661779404,0.22015593945980072,0.018857959657907486]},{"bufferView":1,"componentType":5121,"normalized":true,"count":114,"type":"VEC4"},{"bufferView":2,"componentType":5123,"count":216,"type":"SCALAR"}]}