{"asset":{"version":"2.0","generator":"wam scripts/export_items.py (watermelon_2)"},"scene":0,"scenes":[{"nodes":[0]}],"nodes":[{"name":"watermelon_2","mesh":0}],"meshes":[{"primitives":[{"attributes":{"POSITION":0,"COLOR_0":1},"indices":2,"material":0}]}],"materials":[{"name":"watermelon_2","pbrMetallicRoughness":{"baseColorFactor":[1,1,1,1],"metallicFactor":0,"roughnessFactor":0.85}}],"buffers":[{"byteLength":38422,"uri":"data:application/octet-stream;base64,"}],"bufferViews":[{"buffer":0,"byteOffset":0,"byteLength":24528,"target":34962},{"buffer":0,"byteOffset":24528,"byteLength":8176,"target":34962},{"buffer":0,"byteOffset":32704,"byteLength":5718,"target":34963}],"accessors":[{"bufferView":0,"componentType":5126,"count":2044,"type":"VEC3","min":[-0.2699609398841858,-0.00046499999007210135,-0.31329959630966187],"max":[0.2699609398841858,0.19951584935188293,0.3152962923049927]},{"bufferView":1,"componentType":5121,"normalized":true,"count":2044,"type":"VEC4"},{"bufferView":2,"componentType":5123,"count":2859,"type":"SCALAR"}]}