{"asset":{"version":"2.0","generator":"wam scripts/export_items.py (watermelon_1)"},"scene":0,"scenes":[{"nodes":[0]}],"nodes":[{"name":"watermelon_1","mesh":0}],"meshes":[{"primitives":[{"attributes":{"POSITION":0,"COLOR_0":1},"indices":2,"material":0}]}],"materials":[{"name":"watermelon_1","pbrMetallicRoughness":{"baseColorFactor":[1,1,1,1],"metallicFactor":0,"roughnessFactor":0.85}}],"buffers":[{"byteLength":18240,"uri":"data:application/octet-stream;base64,"}],"bufferViews":[{"buffer":0,"byteOffset":0,"byteLength":11088,"target":34962},{"buffer":0,"byteOffset":11088,"byteLength":3696,"target":34962},{"buffer":0,"byteOffset":14784,"byteLength":3456,"target":34963}],"accessors":[{"bufferView":0,"componentType":5126,"count":924,"type":"VEC3","min":[-0.16192834079265594,-0.0017049999441951513,-0.17036740481853485],"max":[0.16192834079265594,0.13586673140525818,0.16883745789527893]},{"bufferView":1,"componentType":5121,"normalized":true,"count":924,"type":"VEC4"},{"bufferView":2,"componentType":5123,"count":1728,"type":"SCALAR"}]}