{"asset":{"version":"2.0","generator":"wam scripts/export_items.py (watermelon)"},"scene":0,"scenes":[{"nodes":[0]}],"nodes":[{"name":"watermelon","mesh":0}],"meshes":[{"primitives":[{"attributes":{"POSITION":0,"COLOR_0":1},"indices":2,"material":0}]}],"materials":[{"name":"watermelon","pbrMetallicRoughness":{"baseColorFactor":[1,1,1,1],"metallicFactor":0,"roughnessFactor":0.85}}],"buffers":[{"byteLength":5832,"uri":"data:application/octet-stream;base64,"}],"bufferViews":[{"buffer":0,"byteOffset":0,"byteLength":3528,"target":34962},{"buffer":0,"byteOffset":3528,"byteLength":1176,"target":34962},{"buffer":0,"byteOffset":4704,"byteLength":1128,"target":34963}],"accessors":[{"bufferView":0,"componentType":5126,"count":294,"type":"VEC3","min":[-0.07099554687738419,-0.000750000006519258,-0.07099554687738419],"max":[0.07099554687738419,0.2227303683757782,0.07099554687738419]},{"bufferView":1,"componentType":5121,"normalized":true,"count":294,"type":"VEC4"},{"bufferView":2,"componentType":5123,"count":564,"type":"SCALAR"}]}