{"asset":{"version":"2.0","generator":"wam scripts/export_items.py (watermelon_3)"},"scene":0,"scenes":[{"nodes":[0]}],"nodes":[{"name":"watermelon_3","mesh":0}],"meshes":[{"primitives":[{"attributes":{"POSITION":0,"COLOR_0":1},"indices":2,"material":0}]}],"materials":[{"name":"watermelon_3","pbrMetallicRoughness":{"baseColorFactor":[1,1,1,1],"metallicFactor":0,"roughnessFactor":0.85}}],"buffers":[{"byteLength":51872,"uri":"data:application/octet-stream;base64,"}],"bufferViews":[{"buffer":0,"byteOffset":0,"byteLength":34080,"target":34962},{"buffer":0,"byteOffset":34080,"byteLength":11360,"target":34962},{"buffer":0,"byteOffset":45440,"byteLength":6432,"target":34963}],"accessors":[{"bufferView":0,"componentType":5126,"count":2840,"type":"VEC3","min":[-0.3257128596305847,0.0032550001051276922,-0.37938734889030457],"max":[0.3257128596305847,0.2414926439523697,0.38156378269195557]},{"bufferView":1,"componentType":5121,"normalized":true,"count":2840,"type":"VEC4"},{"bufferView":2,"componentType":5123,"count":3216,"type":"SCALAR"}]}