{"asset":{"version":"2.0","generator":"wam scripts/export_items.py (watermelon_0)"},"scene":0,"scenes":[{"nodes":[0]}],"nodes":[{"name":"watermelon_0","mesh":0}],"meshes":[{"primitives":[{"attributes":{"POSITION":0,"COLOR_0":1},"indices":2,"material":0}]}],"materials":[{"name":"watermelon_0","pbrMetallicRoughness":{"baseColorFactor":[1,1,1,1],"metallicFactor":0,"roughnessFactor":0.85}}],"buffers":[{"byteLength":2416,"uri":"data:application/octet-stream;base64,"}],"bufferViews":[{"buffer":0,"byteOffset":0,"byteLength":1344,"target":34962},{"buffer":0,"byteOffset":1344,"byteLength":448,"target":34962},{"buffer":0,"byteOffset":1792,"byteLength":624,"target":34963}],"accessors":[{"bufferView":0,"componentType":5126,"count":112,"type":"VEC3","min":[-0.11087393760681152,0.0,-0.028841456398367882],"max":[0.11087393760681152,0.06835626065731049,0.03564999997615814]},{"bufferView":1,"componentType":5121,"normalized":true,"count":112,"type":"VEC4"},{"bufferView":2,"componentType":5123,"count":312,"type":"SCALAR"}]}