{"asset":{"version":"2.0","generator":"wam scripts/export_items.py (wheat)"},"scene":0,"scenes":[{"nodes":[0]}],"nodes":[{"name":"wheat","mesh":0}],"meshes":[{"primitives":[{"attributes":{"POSITION":0,"COLOR_0":1},"indices":2,"material":0}]}],"materials":[{"name":"wheat","pbrMetallicRoughness":{"baseColorFactor":[1,1,1,1],"metallicFactor":0,"roughnessFactor":0.85}}],"buffers":[{"byteLength":10644,"uri":"data:application/octet-stream;base64,"}],"bufferViews":[{"buffer":0,"byteOffset":0,"byteLength":6480,"target":34962},{"buffer":0,"byteOffset":6480,"byteLength":2160,"target":34962},{"buffer":0,"byteOffset":8640,"byteLength":2004,"target":34963}],"accessors":[{"bufferView":0,"componentType":5126,"count":540,"type":"VEC3","min":[-0.08686918020248413,-0.0014854844193905592,-0.02922656014561653],"max":[0.08686918020248413,0.45828357338905334,0.033777836710214615]},{"bufferView":1,"componentType":5121,"normalized":true,"count":540,"type":"VEC4"},{"bufferView":2,"componentType":5123,"count":1002,"type":"SCALAR"}]}